<svg width="66" height="66" viewBox="0 0 86 86" fill="none" xmlns="http://www.w3.org/2000/svg">
<circle r="43" transform="matrix(1 0 0 -1 43 43)" fill="url(#paint0_radial_1_204)"/>
<circle r="42.5" transform="matrix(1 0 0 -1 43 43)" stroke="#87888C" stroke-opacity="0.15"/>
<path d="M43.3536 7.64645C43.1583 7.45118 42.8417 7.45118 42.6464 7.64645L39.4645 10.8284C39.2692 11.0237 39.2692 11.3403 39.4645 11.5355C39.6597 11.7308 39.9763 11.7308 40.1716 11.5355L43 8.70711L45.8284 11.5355C46.0237 11.7308 46.3403 11.7308 46.5355 11.5355C46.7308 11.3403 46.7308 11.0237 46.5355 10.8284L43.3536 7.64645ZM43.5 15V8H42.5V15H43.5Z" fill="#CFF80B"/>
<path d="M78.3536 42.6464C78.5488 42.8417 78.5488 43.1583 78.3536 43.3536L75.1716 46.5355C74.9763 46.7308 74.6597 46.7308 74.4645 46.5355C74.2692 46.3403 74.2692 46.0237 74.4645 45.8284L77.2929 43L74.4645 40.1716C74.2692 39.9763 74.2692 39.6597 74.4645 39.4645C74.6597 39.2692 74.9763 39.2692 75.1716 39.4645L78.3536 42.6464ZM71 42.5H78V43.5H71V42.5Z" fill="#CFF80B"/>
<path d="M7.64645 43.3536C7.45118 43.1583 7.45118 42.8417 7.64645 42.6464L10.8284 39.4645C11.0237 39.2692 11.3403 39.2692 11.5355 39.4645C11.7308 39.6597 11.7308 39.9763 11.5355 40.1716L8.70711 43L11.5355 45.8284C11.7308 46.0237 11.7308 46.3403 11.5355 46.5355C11.3403 46.7308 11.0237 46.7308 10.8284 46.5355L7.64645 43.3536ZM15 43.5H8V42.5H15V43.5Z" fill="#CFF80B"/>
<path d="M42.6464 78.3536C42.8417 78.5488 43.1583 78.5488 43.3536 78.3536L46.5355 75.1716C46.7308 74.9763 46.7308 74.6597 46.5355 74.4645C46.3403 74.2692 46.0237 74.2692 45.8284 74.4645L43 77.2929L40.1716 74.4645C39.9763 74.2692 39.6597 74.2692 39.4645 74.4645C39.2692 74.6597 39.2692 74.9763 39.4645 75.1716L42.6464 78.3536ZM42.5 71V78H43.5V71H42.5Z" fill="#CFF80B"/>
<path d="M45.772 49L43.614 45.295H42.184V49H41.001V39.939H43.926C44.6107 39.939 45.187 40.056 45.655 40.29C46.1317 40.524 46.487 40.8403 46.721 41.239C46.955 41.6377 47.072 42.0927 47.072 42.604C47.072 43.228 46.89 43.7783 46.526 44.255C46.1707 44.7317 45.6333 45.048 44.914 45.204L47.189 49H45.772ZM42.184 44.346H43.926C44.5673 44.346 45.0483 44.19 45.369 43.878C45.6897 43.5573 45.85 43.1327 45.85 42.604C45.85 42.0667 45.6897 41.6507 45.369 41.356C45.057 41.0613 44.576 40.914 43.926 40.914H42.184V44.346Z" fill="#CFF80B"/>
<g filter="url(#filter0_f_1_204)">
<circle cx="43.5" cy="43.5" r="4.5" fill="#CFF80B"/>
</g>
<defs>
<filter id="filter0_f_1_204" x="23" y="23" width="41" height="41" filterUnits="userSpaceOnUse" color-interpolation-filters="sRGB">
<feFlood flood-opacity="0" result="BackgroundImageFix"/>
<feBlend mode="normal" in="SourceGraphic" in2="BackgroundImageFix" result="shape"/>
<feGaussianBlur stdDeviation="8" result="effect1_foregroundBlur_1_204"/>
</filter>
<radialGradient id="paint0_radial_1_204" cx="0" cy="0" r="1" gradientUnits="userSpaceOnUse" gradientTransform="translate(43 43) rotate(90) scale(43)">
<stop stop-color="#1F1F1F" stop-opacity="0.4"/>
<stop offset="1" stop-color="#1F1F1F"/>
</radialGradient>
</defs>
</svg>
