<svg width="87" height="62" viewBox="0 0 127 102" fill="none" xmlns="http://www.w3.org/2000/svg">
<path d="M5.25025 40.1021C2.06564 47.7259 0.285805 55.9998 0.250542 64.2534H16.5907C16.6233 58.2104 17.8389 52.231 20.1701 46.6501C22.5334 40.9924 25.9968 35.856 30.3607 31.5366C34.7247 27.2172 39.9031 23.8001 45.598 21.4818C51.2929 19.1634 57.3918 17.9897 63.5439 18.0281C69.6959 18.0665 75.7796 19.3162 81.4449 21.7054C87.1101 24.0946 92.2452 27.5762 96.5545 31.9497C100.864 36.3232 104.262 41.5024 106.554 47.1892C108.815 52.7987 109.955 58.7928 109.912 64.8357L126.748 65.0458C126.819 56.7926 125.267 48.6044 122.179 40.9434C119.061 33.205 114.436 26.1573 108.572 20.2058C102.708 14.2543 95.72 9.5165 88.0104 6.26512C80.3007 3.01375 72.0216 1.31299 63.6494 1.26074C55.2932 1.2086 46.7867 3.52565 39.2514 6.2394C30.7556 10.5104 25.2408 13.7171 18.7449 19.6887C12.8113 25.5627 8.46743 32.4003 5.25025 40.1021Z" stroke="#87888C" stroke-opacity="0.4" stroke-width="0.5"/>
<path d="M99.3872 65.0036C99.3872 55.1915 95.4738 45.7813 88.5078 38.8431C81.5418 31.905 72.0938 28.0071 62.2424 28.0071C52.391 28.0071 42.9431 31.905 35.9771 38.8431C29.0111 45.7813 25.0977 55.1915 25.0977 65.0036L62.2424 65.0036H99.3872Z" fill="url(#paint0_linear_215_5)"/>
<path d="M19.0742 65.0036C19.0742 53.5341 23.8997 42.0344 32.0424 33.9242C40.1851 25.8141 51.2289 21.2578 62.7444 21.2578C74.2599 21.2578 85.3038 25.8141 93.4465 33.9242C101.395 41.8411 106.917 53.5341 106.917 65.0036" stroke="#313131" stroke-width="0.5"/>
<g filter="url(#filter0_f_215_5)">
<path d="M43.9959 48.0847C41.211 50.6982 35.7455 58.9408 36.1633 71.003H104.909L103.905 57.0044C102.86 48.1587 94.9371 35.8492 82.8226 31.5068L74.2893 43.5057C72.7228 42.5005 68.956 40.7266 64.3609 40.2443C60.0094 39.8422 49.8443 40.8474 43.9959 48.0847Z" fill="#111111"/>
</g>
<path d="M21.082 65.0036C21.082 53.3199 25.9114 43.7629 33.6309 35.5064C41.3499 27.2506 52.0922 23.0076 63 23.0076C73.9079 23.0076 84.373 27.642 92.092 35.8978C99.8115 44.1543 104.407 53.3199 104.407 65.0036" stroke="#313131" stroke-width="0.5"/>
<path d="M-0.000152588 65.0036C-0.000152588 53.729 3.014 42.1481 8.73254 32.418C14.4511 22.6879 22.6678 14.6498 32.5381 9.13C42.4085 3.61015 53.5765 0.807564 64.8944 1.01026C76.2124 1.21297 86.2088 4.13918 95.8735 10.0089L86.3364 24.0075C78.3051 20.0079 72.2816 19.008 64.2503 18.5081C55.717 18.0081 48.3463 19.9889 41.1603 24.0075C33.9743 28.0262 27.2532 34.4219 23.0899 41.5058C18.9265 48.5898 17.0664 56.7952 17.0664 65.0036H8.53311H-0.000152588Z" fill="#CFF80B"/>
<path d="M96.8776 10.5089L95.3717 9.50897L72.2817 45.0055L96.8776 10.5089Z" fill="white"/>
<path d="M126.995 65.0036H104.407" stroke="#404142" stroke-width="0.5"/>
<path d="M25.0977 65.0036H17.0664" stroke="#404142" stroke-width="0.5"/>
<path d="M58.2271 1.00977L59.7328 28.0068" stroke="#313131" stroke-opacity="0.72" stroke-width="0.5"/>
<path d="M13.5527 25.0074L33.631 41.5059" stroke="#313131" stroke-opacity="0.72" stroke-width="0.5"/>
<g clip-path="url(#clip0_215_5)">
<path d="M56.1238 55.3219L55.9998 55.198C56.1101 55.0877 56.241 55.0002 56.385 54.9404C56.5291 54.8807 56.6835 54.85 56.8395 54.85H61.362C62.0181 54.85 62.549 55.3819 62.549 56.037V59.3576V59.3578C62.5488 59.6725 62.4237 59.9743 62.2012 60.1969C61.9788 60.4196 61.6771 60.5449 61.3623 60.5453L61.3619 60.5453L56.8395 60.5423L56.1238 55.3219ZM56.1238 55.3219L55.9998 55.198C55.8896 55.3083 55.8022 55.4392 55.7426 55.5834C55.683 55.7274 55.6524 55.8818 55.6525 56.0377M56.1238 55.3219L55.6525 56.0377M55.6525 59.3545C55.6525 59.3545 55.6525 59.3546 55.6525 59.3546C55.6524 59.5105 55.683 59.6649 55.7426 59.809C55.8022 59.9531 55.8896 60.0841 55.9998 60.1944C56.1101 60.3047 56.241 60.3922 56.385 60.4519C56.5291 60.5116 56.6835 60.5423 56.8394 60.5423L55.857 59.3546L55.6525 59.3545ZM55.6525 59.3545V56.0379M55.6525 59.3545V56.0379M55.6525 56.0379L55.6525 56.0377M55.6525 56.0379L55.6525 56.0377M55.0355 55.5383V55.495C55.0591 54.7955 55.6335 54.2355 56.3385 54.2355H68.3496C68.695 54.236 69.026 54.3735 69.2701 54.6177C69.5143 54.862 69.6516 55.1931 69.652 55.5385V59.8578C69.652 60.2029 69.515 60.5339 69.2713 60.7781C69.0275 61.0223 68.6969 61.1599 68.3518 61.1607C68.3517 61.1607 68.3517 61.1607 68.3516 61.1607L56.3385 61.1607C55.6189 61.1607 55.0355 60.5773 55.0355 59.8578V55.5383ZM71.0612 56.0879L70.8965 56.0295V55.5383C70.8965 54.8635 70.6285 54.2163 70.1513 53.7391C69.6741 53.262 69.0268 52.9939 68.352 52.9939H56.34C55.6652 52.9939 55.0179 53.262 54.5407 53.7391C54.0635 54.2163 53.7955 54.8635 53.7955 55.5383V59.8578C53.7955 60.5326 54.0635 61.1798 54.5407 61.657C55.0179 62.1341 55.6652 62.4022 56.34 62.4022H68.352C69.0268 62.4022 69.6741 62.1341 70.1513 61.657C70.6285 61.1798 70.8965 60.5326 70.8965 59.8578V59.3541L71.0489 59.3106L71.0594 59.3076L71.0595 59.308L71.0719 59.3036C71.7319 59.0686 72.2053 58.4383 72.2053 57.6973C72.2053 56.9555 71.7311 56.3257 71.0612 56.0879Z" fill="white" stroke="white" stroke-width="0.409091"/>
</g>
<defs>
<filter id="filter0_f_215_5" x="29.1406" y="24.5068" width="82.7681" height="53.4962" filterUnits="userSpaceOnUse" color-interpolation-filters="sRGB">
<feFlood flood-opacity="0" result="BackgroundImageFix"/>
<feBlend mode="normal" in="SourceGraphic" in2="BackgroundImageFix" result="shape"/>
<feGaussianBlur stdDeviation="3.5" result="effect1_foregroundBlur_215_5"/>
</filter>
<linearGradient id="paint0_linear_215_5" x1="25.0977" y1="65.0036" x2="85.7018" y2="27.7912" gradientUnits="userSpaceOnUse">
<stop stop-color="#CFF80B"/>
<stop offset="0.0001" stop-color="#CFF80B"/>
<stop offset="0.267361" stop-color="#CFF80B" stop-opacity="0.73"/>
<stop offset="1" stop-color="#D9D9D9" stop-opacity="0"/>
</linearGradient>
<clipPath id="clip0_215_5">
<rect width="18" height="17.9983" fill="white" transform="translate(54 49)"/>
</clipPath>
</defs>
</svg>
