<svg width="40" height="40" viewBox="0 0 50 51" fill="none" xmlns="http://www.w3.org/2000/svg">
<circle cx="25" cy="25.5" r="25" fill="white" fill-opacity="0.33"/>
<path d="M24.125 13.25H25.875V17.625H24.125V13.25ZM29.977 19.2875L33.0447 16.2197L34.282 17.457L31.2142 20.5247L29.977 19.2875ZM32.875 24.625H37.25V26.375H32.875V24.625ZM29.977 31.7125L31.2142 30.4761L34.282 33.5439L33.0447 34.7811L29.977 31.7125ZM24.125 33.375H25.875V37.75H24.125V33.375ZM15.7197 33.543L18.7875 30.4752L20.0247 31.7125L16.9579 34.7802L15.7197 33.543ZM12.75 24.625H17.125V26.375H12.75V24.625ZM15.7206 17.457L16.9579 16.2197L20.0256 19.2875L18.7875 20.5247L15.7206 17.457ZM25 20.25C23.9616 20.25 22.9466 20.5579 22.0833 21.1348C21.2199 21.7117 20.547 22.5316 20.1496 23.4909C19.7523 24.4502 19.6483 25.5058 19.8509 26.5242C20.0534 27.5426 20.5535 28.4781 21.2877 29.2123C22.0219 29.9465 22.9574 30.4465 23.9758 30.6491C24.9942 30.8517 26.0498 30.7477 27.0091 30.3504C27.9684 29.953 28.7883 29.2801 29.3652 28.4167C29.9421 27.5534 30.25 26.5384 30.25 25.5C30.25 24.1076 29.6969 22.7723 28.7123 21.7877C27.7277 20.8031 26.3924 20.25 25 20.25Z" fill="white"/>
</svg>
