<svg width="30" height="30" viewBox="0 0 30 30" fill="none" xmlns="http://www.w3.org/2000/svg">
<path d="M17.9375 3.75C19.15 3.76276 20.1375 4.40094 20.7125 5.54967C20.8609 5.8528 21.068 6.29554 21.2848 6.76258L21.5465 7.32732L21.675 7.60461L21.8 7.88541C21.85 7.97475 21.9375 8.03857 22.05 8.03857C25.05 8.03857 27.5 10.5402 27.5 13.6035V21.1851C27.5 24.2483 25.05 26.75 22.05 26.75H7.95C4.9375 26.75 2.5 24.2483 2.5 21.1851V13.6035C2.5 10.5402 4.9375 8.03857 7.95 8.03857C8.05 8.03857 8.15 7.98751 8.1875 7.88541L8.2625 7.73224C8.6125 6.97919 9.0375 6.06021 9.2875 5.54967C9.8625 4.40094 10.8375 3.76276 12.05 3.75H17.9375ZM15 11.9315C13.6875 11.9315 12.45 12.4548 11.5125 13.412C10.5875 14.3693 10.075 15.6201 10.0875 16.9476C10.0875 18.2877 10.6 19.5386 11.525 20.4958C12.4625 21.4403 13.6875 21.9637 15 21.9637C16.35 21.9637 17.575 21.4021 18.4625 20.4958C19.35 19.5896 19.9 18.3388 19.9125 16.9476C19.9125 15.6201 19.4 14.3565 18.475 13.3993C17.55 12.4548 16.3125 11.9315 15 11.9315ZM15 13.846C15.8125 13.846 16.575 14.1651 17.15 14.7522C17.725 15.3393 18.0375 16.1179 18.0375 16.9476C18.025 18.6579 16.675 20.0491 15 20.0491C14.1875 20.0491 13.425 19.73 12.85 19.1429C12.275 18.5558 11.9625 17.7772 11.9625 16.9476V16.9348C11.95 16.1307 12.2625 15.3521 12.8375 14.765C13.425 14.1651 14.1875 13.846 15 13.846ZM22.0125 11.6251C21.3875 11.6251 20.8875 12.1484 20.8875 12.7866C20.8875 13.4248 21.3875 13.9353 22.0125 13.9353C22.6375 13.9353 23.15 13.4248 23.15 12.7866C23.15 12.1484 22.6375 11.6251 22.0125 11.6251Z" fill="#A2A1A1"/>
</svg>
