<svg width="28" height="37" viewBox="0 0 28 37" fill="none" xmlns="http://www.w3.org/2000/svg">
<path d="M5.5415 29.2492C5.5415 29.2492 0.166504 14.9159 0.166504 7.74925C0.166504 0.582581 3.74984 0.582581 3.74984 0.582581H5.5415C5.5415 0.582581 7.33317 0.582581 7.33317 2.37425C7.33317 4.16591 5.5415 4.16591 5.5415 7.74925C5.5415 11.3326 10.9165 14.9159 10.9165 20.2909C10.9165 25.6659 5.5415 29.2492 5.5415 29.2492ZM14.4998 27.4576C12.7082 27.4576 7.33317 31.9367 7.33317 31.9367C6.79567 32.2951 6.97484 32.8326 7.33317 33.3701C7.33317 33.3701 9.12484 36.5951 12.7082 36.5951H23.4582C25.429 36.5951 27.0415 34.9826 27.0415 33.0117V31.2201C27.0415 29.2492 25.429 27.6367 23.4582 27.6367H14.4998V27.4576Z" fill="white"/>
</svg>
