<svg width="310" height="129" viewBox="0 0 540 129" fill="none" xmlns="http://www.w3.org/2000/svg">
<path d="M538 64.5C538 72.217 531.389 80.1891 517.799 87.8649C504.369 95.4497 484.804 102.346 460.454 108.163C411.786 119.789 344.449 127 270 127C195.551 127 128.214 119.789 79.5459 108.163C55.1961 102.346 35.6308 95.4497 22.2015 87.8649C8.61115 80.1891 2 72.217 2 64.5C2 56.783 8.61115 48.8109 22.2015 41.1351C35.6308 33.5503 55.1961 26.6538 79.5459 20.8369C128.214 9.21064 195.551 2 270 2C344.449 2 411.786 9.21064 460.454 20.8369C484.804 26.6538 504.369 33.5503 517.799 41.1351C531.389 48.8109 538 56.783 538 64.5Z" fill="url(#paint0_linear_1_191)" stroke="url(#paint1_linear_1_191)" stroke-width="4"/>
<path d="M538 56.5C538 59.7064 536.456 63.0404 533.085 66.4884C529.706 69.9434 524.62 73.3724 517.895 76.6997C504.452 83.3506 484.87 89.3961 460.509 94.4939C411.82 104.683 344.464 111 270 111C195.536 111 128.18 104.683 79.4908 94.4939C55.1297 89.3961 35.5478 83.3506 22.1048 76.6997C15.3795 73.3724 10.294 69.9434 6.91538 66.4884C3.54362 63.0404 2 59.7064 2 56.5C2 53.2936 3.54362 49.9596 6.91538 46.5116C10.294 43.0566 15.3795 39.6276 22.1048 36.3003C35.5478 29.6494 55.1297 23.6039 79.4908 18.5061C128.18 8.31734 195.536 2 270 2C344.464 2 411.82 8.31734 460.509 18.5061C484.87 23.6039 504.452 29.6494 517.895 36.3003C524.62 39.6276 529.706 43.0566 533.085 46.5116C536.456 49.9596 538 53.2936 538 56.5Z" fill="#121212" stroke="url(#paint2_linear_1_191)" stroke-width="4"/>
<defs>
<linearGradient id="paint0_linear_1_191" x1="270" y1="55" x2="270" y2="129" gradientUnits="userSpaceOnUse">
<stop stop-color="#CFF80B" stop-opacity="0.2"/>
<stop offset="1" stop-color="#CFF80B"/>
</linearGradient>
<linearGradient id="paint1_linear_1_191" x1="270.548" y1="129" x2="270.548" y2="5.03863e-06" gradientUnits="userSpaceOnUse">
<stop stop-color="#87888C"/>
<stop offset="1" stop-color="#373838"/>
</linearGradient>
<linearGradient id="paint2_linear_1_191" x1="270.548" y1="113" x2="270.548" y2="4.41369e-06" gradientUnits="userSpaceOnUse">
<stop stop-color="#87888C"/>
<stop offset="1" stop-color="#87888C" stop-opacity="0"/>
</linearGradient>
</defs>
</svg>
