<svg width="47" height="54" viewBox="0 0 47 54" fill="none" xmlns="http://www.w3.org/2000/svg">
<path d="M10.2083 37.6476L10.375 37.5887V37.4119V32.0625C10.375 31.6813 10.5265 31.3156 10.796 31.046C11.0656 30.7764 11.4313 30.625 11.8125 30.625C12.1937 30.625 12.5594 30.7764 12.829 31.046C13.0985 31.3156 13.25 31.6813 13.25 32.0625V37.4119V37.5887L13.4167 37.6476C14.3554 37.9795 15.168 38.5943 15.7426 39.4074C16.3172 40.2205 16.6255 41.1917 16.625 42.1874C16.6245 43.0696 16.3816 43.9346 15.9227 44.6881C15.4639 45.4415 14.8067 46.0544 14.0231 46.4596C13.2395 46.8648 12.3596 47.0469 11.4796 46.9858C10.5995 46.9248 9.75314 46.623 9.03297 46.1135C8.31281 45.604 7.74656 44.9063 7.39608 44.0968C7.04561 43.2872 6.92441 42.3969 7.04572 41.5231C7.16704 40.6493 7.5262 39.8256 8.08395 39.1421C8.64171 38.4587 9.37661 37.9416 10.2083 37.6476Z" fill="#CFF80B" stroke="black" stroke-width="0.5"/>
<mask id="path-2-inside-1_1_368" fill="white">
<path d="M3.37501 8.4375C3.37501 6.19974 4.26395 4.05363 5.84629 2.47129C7.42863 0.888949 9.57474 0 11.8125 0C14.0503 0 16.1964 0.888949 17.7787 2.47129C19.3611 4.05363 20.25 6.19974 20.25 8.4375V33.9188C21.8779 35.5802 22.979 37.6853 23.4153 39.97C23.8516 42.2548 23.6037 44.6175 22.7026 46.7619C21.8015 48.9063 20.2874 50.7369 18.3501 52.0242C16.4128 53.3116 14.1385 53.9983 11.8125 53.9983C9.48648 53.9983 7.21222 53.3116 5.27491 52.0242C3.3376 50.7369 1.82347 48.9063 0.922386 46.7619C0.0213008 44.6175 -0.22663 42.2548 0.209681 39.97C0.645993 37.6853 1.74713 35.5802 3.37501 33.9188V8.4375ZM11.8125 3.375C10.4698 3.375 9.18218 3.90837 8.23278 4.85777C7.28337 5.80718 6.75001 7.09484 6.75001 8.4375V35.3936L6.18638 35.8999C4.91256 37.039 4.01466 38.5381 3.6115 40.1987C3.20833 41.8594 3.31891 43.6033 3.9286 45.1997C4.5383 46.7961 5.61836 48.1697 7.02586 49.1388C8.43336 50.1079 10.1019 50.6268 11.8108 50.6268C13.5197 50.6268 15.1883 50.1079 16.5958 49.1388C18.0033 48.1697 19.0833 46.7961 19.693 45.1997C20.3027 43.6033 20.4133 41.8594 20.0101 40.1987C19.607 38.5381 18.7091 37.039 17.4353 35.8999L16.875 35.3903V8.4375C16.875 7.09484 16.3416 5.80718 15.3922 4.85777C14.4428 3.90837 13.1552 3.375 11.8125 3.375ZM28.6875 6.75C29.1351 6.75 29.5643 6.92779 29.8808 7.24426C30.1972 7.56073 30.375 7.98995 30.375 8.4375V12.8014L32.5553 10.6178C32.8721 10.3009 33.3019 10.1229 33.75 10.1229C34.1981 10.1229 34.6279 10.3009 34.9448 10.6178C35.2616 10.9346 35.4396 11.3644 35.4396 11.8125C35.4396 12.2606 35.2616 12.6904 34.9448 13.0073L30.375 17.5736V24.0773L36.0079 20.8271L37.6785 14.5834C37.7361 14.3693 37.8353 14.1687 37.9705 13.993C38.1056 13.8172 38.2741 13.6698 38.4662 13.5592C38.6583 13.4486 38.8703 13.3769 39.0902 13.3482C39.31 13.3195 39.5333 13.3344 39.7474 13.392C39.9615 13.4496 40.1621 13.5488 40.3378 13.684C40.5135 13.8191 40.6609 13.9876 40.7715 14.1797C40.8822 14.3718 40.9539 14.5838 40.9826 14.8037C41.0113 15.0235 40.9964 15.2468 40.9388 15.4609L40.1389 18.4376L43.9189 16.2574C44.3063 16.0371 44.765 15.979 45.1951 16.0958C45.6251 16.2126 45.9915 16.4947 46.2143 16.8806C46.4372 17.2665 46.4983 17.7249 46.3844 18.1557C46.2705 18.5865 45.9908 18.9548 45.6064 19.1801L41.8264 21.3604L44.8099 22.1603C45.024 22.2179 45.2246 22.3171 45.4003 22.4522C45.576 22.5874 45.7234 22.7558 45.834 22.948C45.9447 23.1401 46.0164 23.3521 46.0451 23.5719C46.0738 23.7917 46.0589 24.0151 46.0013 24.2291C45.9436 24.4432 45.8444 24.6438 45.7093 24.8196C45.5741 24.9953 45.4057 25.1427 45.2136 25.2533C45.0214 25.3639 44.8094 25.4356 44.5896 25.4643C44.3698 25.493 44.1465 25.4781 43.9324 25.4205L37.6954 23.7499L32.0625 27L37.6954 30.2501L43.9358 28.5795C44.1512 28.5181 44.3766 28.5002 44.599 28.5268C44.8214 28.5534 45.0363 28.6241 45.2311 28.7346C45.4259 28.8451 45.5968 28.9933 45.7337 29.1706C45.8707 29.3478 45.971 29.5505 46.0288 29.7669C46.0866 29.9833 46.1007 30.209 46.0704 30.431C46.04 30.6529 45.9658 30.8665 45.852 31.0595C45.7383 31.2524 45.5872 31.4208 45.4077 31.5547C45.2282 31.6887 45.0238 31.7856 44.8065 31.8398L41.8264 32.6396L45.6064 34.8199C45.9908 35.0453 46.2705 35.4135 46.3844 35.8443C46.4983 36.2752 46.4372 36.7335 46.2143 37.1194C45.9915 37.5053 45.6251 37.7875 45.1951 37.9042C44.765 38.021 44.3063 37.9629 43.9189 37.7426L40.1389 35.5624L40.9388 38.5425C41.0002 38.7579 41.0181 38.9834 40.9915 39.2058C40.9648 39.4282 40.8942 39.643 40.7837 39.8379C40.6731 40.0327 40.5249 40.2035 40.3477 40.3405C40.1705 40.4774 39.9678 40.5777 39.7514 40.6355C39.535 40.6933 39.3092 40.7075 39.0873 40.6771C38.8654 40.6468 38.6517 40.5726 38.4588 40.4588C38.2659 40.345 38.0975 40.194 37.9635 40.0145C37.8296 39.835 37.7327 39.6306 37.6785 39.4133L36.0113 33.1763L30.375 29.9228V36.4264L34.9448 40.9928C35.1017 41.1497 35.2261 41.3359 35.311 41.5409C35.3959 41.7459 35.4396 41.9656 35.4396 42.1875C35.4396 42.4094 35.3959 42.6291 35.311 42.8341C35.2261 43.0391 35.1017 43.2254 34.9448 43.3823C34.7879 43.5392 34.6016 43.6636 34.3966 43.7485C34.1916 43.8334 33.9719 43.8771 33.75 43.8771C33.5281 43.8771 33.3084 43.8334 33.1034 43.7485C32.8984 43.6636 32.7122 43.5392 32.5553 43.3823L30.375 41.1986V45.5625C30.375 46.0101 30.1972 46.4393 29.8808 46.7558C29.5643 47.0722 29.1351 47.25 28.6875 47.25C28.24 47.25 27.8107 47.0722 27.4943 46.7558C27.1778 46.4393 27 46.0101 27 45.5625V8.4375C27 7.98995 27.1778 7.56073 27.4943 7.24426C27.8107 6.92779 28.24 6.75 28.6875 6.75Z"/>
</mask>
<path d="M3.37501 8.4375C3.37501 6.19974 4.26395 4.05363 5.84629 2.47129C7.42863 0.888949 9.57474 0 11.8125 0C14.0503 0 16.1964 0.888949 17.7787 2.47129C19.3611 4.05363 20.25 6.19974 20.25 8.4375V33.9188C21.8779 35.5802 22.979 37.6853 23.4153 39.97C23.8516 42.2548 23.6037 44.6175 22.7026 46.7619C21.8015 48.9063 20.2874 50.7369 18.3501 52.0242C16.4128 53.3116 14.1385 53.9983 11.8125 53.9983C9.48648 53.9983 7.21222 53.3116 5.27491 52.0242C3.3376 50.7369 1.82347 48.9063 0.922386 46.7619C0.0213008 44.6175 -0.22663 42.2548 0.209681 39.97C0.645993 37.6853 1.74713 35.5802 3.37501 33.9188V8.4375ZM11.8125 3.375C10.4698 3.375 9.18218 3.90837 8.23278 4.85777C7.28337 5.80718 6.75001 7.09484 6.75001 8.4375V35.3936L6.18638 35.8999C4.91256 37.039 4.01466 38.5381 3.6115 40.1987C3.20833 41.8594 3.31891 43.6033 3.9286 45.1997C4.5383 46.7961 5.61836 48.1697 7.02586 49.1388C8.43336 50.1079 10.1019 50.6268 11.8108 50.6268C13.5197 50.6268 15.1883 50.1079 16.5958 49.1388C18.0033 48.1697 19.0833 46.7961 19.693 45.1997C20.3027 43.6033 20.4133 41.8594 20.0101 40.1987C19.607 38.5381 18.7091 37.039 17.4353 35.8999L16.875 35.3903V8.4375C16.875 7.09484 16.3416 5.80718 15.3922 4.85777C14.4428 3.90837 13.1552 3.375 11.8125 3.375ZM28.6875 6.75C29.1351 6.75 29.5643 6.92779 29.8808 7.24426C30.1972 7.56073 30.375 7.98995 30.375 8.4375V12.8014L32.5553 10.6178C32.8721 10.3009 33.3019 10.1229 33.75 10.1229C34.1981 10.1229 34.6279 10.3009 34.9448 10.6178C35.2616 10.9346 35.4396 11.3644 35.4396 11.8125C35.4396 12.2606 35.2616 12.6904 34.9448 13.0073L30.375 17.5736V24.0773L36.0079 20.8271L37.6785 14.5834C37.7361 14.3693 37.8353 14.1687 37.9705 13.993C38.1056 13.8172 38.2741 13.6698 38.4662 13.5592C38.6583 13.4486 38.8703 13.3769 39.0902 13.3482C39.31 13.3195 39.5333 13.3344 39.7474 13.392C39.9615 13.4496 40.1621 13.5488 40.3378 13.684C40.5135 13.8191 40.6609 13.9876 40.7715 14.1797C40.8822 14.3718 40.9539 14.5838 40.9826 14.8037C41.0113 15.0235 40.9964 15.2468 40.9388 15.4609L40.1389 18.4376L43.9189 16.2574C44.3063 16.0371 44.765 15.979 45.1951 16.0958C45.6251 16.2126 45.9915 16.4947 46.2143 16.8806C46.4372 17.2665 46.4983 17.7249 46.3844 18.1557C46.2705 18.5865 45.9908 18.9548 45.6064 19.1801L41.8264 21.3604L44.8099 22.1603C45.024 22.2179 45.2246 22.3171 45.4003 22.4522C45.576 22.5874 45.7234 22.7558 45.834 22.948C45.9447 23.1401 46.0164 23.3521 46.0451 23.5719C46.0738 23.7917 46.0589 24.0151 46.0013 24.2291C45.9436 24.4432 45.8444 24.6438 45.7093 24.8196C45.5741 24.9953 45.4057 25.1427 45.2136 25.2533C45.0214 25.3639 44.8094 25.4356 44.5896 25.4643C44.3698 25.493 44.1465 25.4781 43.9324 25.4205L37.6954 23.7499L32.0625 27L37.6954 30.2501L43.9358 28.5795C44.1512 28.5181 44.3766 28.5002 44.599 28.5268C44.8214 28.5534 45.0363 28.6241 45.2311 28.7346C45.4259 28.8451 45.5968 28.9933 45.7337 29.1706C45.8707 29.3478 45.971 29.5505 46.0288 29.7669C46.0866 29.9833 46.1007 30.209 46.0704 30.431C46.04 30.6529 45.9658 30.8665 45.852 31.0595C45.7383 31.2524 45.5872 31.4208 45.4077 31.5547C45.2282 31.6887 45.0238 31.7856 44.8065 31.8398L41.8264 32.6396L45.6064 34.8199C45.9908 35.0453 46.2705 35.4135 46.3844 35.8443C46.4983 36.2752 46.4372 36.7335 46.2143 37.1194C45.9915 37.5053 45.6251 37.7875 45.1951 37.9042C44.765 38.021 44.3063 37.9629 43.9189 37.7426L40.1389 35.5624L40.9388 38.5425C41.0002 38.7579 41.0181 38.9834 40.9915 39.2058C40.9648 39.4282 40.8942 39.643 40.7837 39.8379C40.6731 40.0327 40.5249 40.2035 40.3477 40.3405C40.1705 40.4774 39.9678 40.5777 39.7514 40.6355C39.535 40.6933 39.3092 40.7075 39.0873 40.6771C38.8654 40.6468 38.6517 40.5726 38.4588 40.4588C38.2659 40.345 38.0975 40.194 37.9635 40.0145C37.8296 39.835 37.7327 39.6306 37.6785 39.4133L36.0113 33.1763L30.375 29.9228V36.4264L34.9448 40.9928C35.1017 41.1497 35.2261 41.3359 35.311 41.5409C35.3959 41.7459 35.4396 41.9656 35.4396 42.1875C35.4396 42.4094 35.3959 42.6291 35.311 42.8341C35.2261 43.0391 35.1017 43.2254 34.9448 43.3823C34.7879 43.5392 34.6016 43.6636 34.3966 43.7485C34.1916 43.8334 33.9719 43.8771 33.75 43.8771C33.5281 43.8771 33.3084 43.8334 33.1034 43.7485C32.8984 43.6636 32.7122 43.5392 32.5553 43.3823L30.375 41.1986V45.5625C30.375 46.0101 30.1972 46.4393 29.8808 46.7558C29.5643 47.0722 29.1351 47.25 28.6875 47.25C28.24 47.25 27.8107 47.0722 27.4943 46.7558C27.1778 46.4393 27 46.0101 27 45.5625V8.4375C27 7.98995 27.1778 7.56073 27.4943 7.24426C27.8107 6.92779 28.24 6.75 28.6875 6.75Z" fill="#CFF80B" stroke="black" mask="url(#path-2-inside-1_1_368)"/>
</svg>
