<svg width="40" height="40" viewBox="0 0 50 50" fill="none" xmlns="http://www.w3.org/2000/svg">
<circle cx="25" cy="25" r="25" fill="white" fill-opacity="0.33"/>
<path d="M17.6875 17.2334C17.5575 17.2317 17.4313 17.1897 17.3264 17.113C17.2215 17.0364 17.143 16.9289 17.1019 16.8057C17.0608 16.6824 17.0592 16.5494 17.0971 16.4251C17.1351 16.3008 17.2108 16.1914 17.3137 16.1122C19.5556 14.5261 22.2554 13.7184 25 13.8128C27.1612 13.8128 30.265 14.1784 32.7187 15.9415C32.8529 16.0378 32.9436 16.1832 32.971 16.3461C32.9984 16.5089 32.9603 16.676 32.865 16.8109C32.766 16.9444 32.6186 17.0336 32.4545 17.0594C32.2904 17.0853 32.1227 17.0456 31.9875 16.949C29.9038 15.6248 27.4671 14.9646 25 15.0559C22.5369 14.9722 20.1132 15.6908 18.0937 17.1034C17.9787 17.1949 17.8342 17.2412 17.6875 17.2334Z" fill="white"/>
<path d="M34.9369 22.9614C34.8364 22.9605 34.7376 22.9357 34.6486 22.8891C34.5596 22.8425 34.483 22.7754 34.425 22.6933C33.0194 20.7108 30.5088 18.0702 25 18.0702C23.1684 18.0241 21.3528 18.4211 19.7076 19.2274C18.0624 20.0337 16.6363 21.2255 15.5506 22.7014C15.4532 22.8343 15.3071 22.9234 15.1444 22.9493C14.9816 22.9751 14.8152 22.9357 14.6813 22.8396C14.611 22.7907 14.5517 22.7277 14.5071 22.6547C14.4625 22.5817 14.4335 22.5002 14.4221 22.4154C14.4106 22.3306 14.4169 22.2444 14.4405 22.1621C14.4642 22.0799 14.5047 22.0034 14.5594 21.9377C15.763 20.3117 17.3396 18.9988 19.1566 18.1094C20.9736 17.22 22.9776 16.7802 25 16.8271C29.5581 16.8271 32.9706 18.5171 35.4325 21.9783C35.527 22.1142 35.5638 22.2819 35.5349 22.4449C35.5059 22.6078 35.4136 22.7526 35.2781 22.8477C35.1776 22.9173 35.0592 22.9568 34.9369 22.9614Z" fill="white"/>
<path d="M21.9774 38.1878C21.8514 38.1872 21.7284 38.1489 21.6242 38.078C21.52 38.0071 21.4393 37.9067 21.3924 37.7897C21.3599 37.7132 21.3434 37.6308 21.344 37.5476C21.3445 37.4645 21.3621 37.3823 21.3956 37.3062C21.4291 37.2301 21.4778 37.1616 21.5387 37.105C21.5996 37.0485 21.6715 37.005 21.7499 36.9772C25.3005 35.6122 27.4374 32.8172 27.4374 29.4941C27.4617 29.1678 27.4153 28.8401 27.3014 28.5333C27.1875 28.2266 27.0087 27.948 26.7773 27.7166C26.546 27.4853 26.2674 27.3065 25.9607 27.1926C25.6539 27.0787 25.3262 27.0323 24.9999 27.0566C23.4887 27.0566 22.7574 27.8691 22.5624 29.7784C22.4717 30.6715 22.0385 31.4946 21.3536 32.0749C20.6688 32.6552 19.7857 32.9475 18.8899 32.8903C18.4082 32.8973 17.9302 32.8039 17.4866 32.616C17.0429 32.4282 16.6433 32.1499 16.3131 31.7991C15.9829 31.4483 15.7294 31.0325 15.5687 30.5783C15.408 30.1241 15.3437 29.6414 15.3799 29.1609C15.4248 26.6489 16.4615 24.2565 18.2638 22.506C20.0661 20.7555 22.4876 19.7889 24.9999 19.8172C27.5759 19.8171 30.0473 20.8366 31.8742 22.6528C33.701 24.469 34.7349 26.9343 34.7499 29.5103C34.6925 31.3241 34.31 33.1129 33.6205 34.7916C33.5543 34.9413 33.4328 35.0596 33.2813 35.1217C33.1299 35.1838 32.9603 35.1848 32.808 35.1247C32.7325 35.0936 32.6639 35.0478 32.6062 34.99C32.5485 34.9322 32.5028 34.8635 32.4719 34.788C32.4409 34.7124 32.4252 34.6315 32.4257 34.5498C32.4262 34.4681 32.443 34.3874 32.4749 34.3122C33.0988 32.7848 33.4481 31.1592 33.5068 29.5103C33.496 27.2627 32.5945 25.111 30.9999 23.527C29.4052 21.9431 27.2475 21.056 24.9999 21.0603C23.9123 21.0388 22.8311 21.232 21.8183 21.6289C20.8055 22.0258 19.8809 22.6186 19.0975 23.3733C18.3141 24.128 17.6873 25.0298 17.2529 26.0272C16.8186 27.0245 16.5852 28.0977 16.5662 29.1853C16.5328 29.5014 16.5669 29.821 16.666 30.123C16.7651 30.425 16.9271 30.7026 17.1413 30.9375C17.3554 31.1724 17.6169 31.3592 17.9085 31.4858C18.2001 31.6123 18.5152 31.6756 18.833 31.6716C19.1256 31.7007 19.4211 31.6715 19.7024 31.5858C19.9836 31.5001 20.2451 31.3595 20.4718 31.1721C20.6984 30.9848 20.8857 30.7544 21.0228 30.4942C21.1599 30.2341 21.2441 29.9494 21.2705 29.6566C21.563 27.1297 22.8062 25.8459 24.9755 25.8459C25.4672 25.8211 25.9585 25.9002 26.4175 26.078C26.8765 26.2559 27.2929 26.5285 27.6394 26.8781C27.9859 27.2277 28.2549 27.6464 28.4287 28.107C28.6025 28.5675 28.6772 29.0596 28.648 29.5509C28.648 33.4022 26.2105 36.6359 22.148 38.1878C22.0913 38.1943 22.0341 38.1943 21.9774 38.1878Z" fill="white"/>
<path d="M28.0629 37.6023C27.9073 37.5998 27.7576 37.5422 27.6404 37.4398C27.5824 37.3824 27.5364 37.314 27.505 37.2387C27.4736 37.1634 27.4574 37.0826 27.4574 37.001C27.4574 36.9195 27.4736 36.8387 27.505 36.7634C27.5364 36.6881 27.5824 36.6197 27.6404 36.5623C29.4684 34.6675 30.4981 32.1426 30.5167 29.5098C30.5167 28.2423 30.1267 24.1067 25.0729 24.1067C24.3365 24.0808 23.6023 24.2018 22.9132 24.4626C22.2241 24.7235 21.5938 25.119 21.0592 25.626C20.5808 26.0994 20.2026 26.6641 19.9472 27.2867C19.6917 27.9093 19.5642 28.5769 19.5723 29.2498C19.5702 29.4143 19.5033 29.5714 19.3862 29.6869C19.2691 29.8025 19.1112 29.8673 18.9467 29.8673C18.8649 29.8684 18.7837 29.8532 18.7079 29.8226C18.632 29.7921 18.563 29.7468 18.5048 29.6893C18.4466 29.6319 18.4003 29.5634 18.3688 29.488C18.3373 29.4125 18.321 29.3316 18.321 29.2498C18.3084 28.4174 18.4613 27.5908 18.771 26.8181C19.0806 26.0453 19.5408 25.3419 20.1248 24.7485C20.7721 24.1272 21.5364 23.6407 22.3732 23.3171C23.2101 22.9935 24.1029 22.8394 24.9998 22.8635C29.9398 22.8635 31.6948 26.4385 31.6948 29.5098C31.6842 32.4404 30.55 35.2554 28.526 37.3748C28.4702 37.4443 28.3998 37.5007 28.3197 37.54C28.2397 37.5793 28.1521 37.6006 28.0629 37.6023Z" fill="white"/>
<path d="M19.0361 35.5386C18.6126 35.5376 18.1894 35.5132 17.7686 35.4654C17.6875 35.4564 17.609 35.4314 17.5375 35.392C17.4661 35.3526 17.4031 35.2995 17.3522 35.2357C17.3013 35.172 17.2634 35.0988 17.2407 35.0204C17.2181 34.942 17.2111 34.86 17.2202 34.7789C17.2292 34.6978 17.2542 34.6193 17.2936 34.5478C17.333 34.4764 17.3861 34.4134 17.4499 34.3625C17.5136 34.3115 17.5868 34.2737 17.6652 34.251C17.7435 34.2284 17.8256 34.2214 17.9067 34.2304C19.9298 34.4579 21.5223 34.1004 22.6517 33.1579C23.1723 32.6924 23.5933 32.1263 23.8893 31.4937C24.1853 30.8612 24.3503 30.1753 24.3742 29.4773C24.3782 29.395 24.3989 29.3144 24.435 29.2404C24.471 29.1663 24.5217 29.1003 24.584 29.0464C24.6463 28.9925 24.7188 28.9517 24.7973 28.9267C24.8757 28.9016 24.9585 28.8926 25.0405 28.9004C25.2043 28.9129 25.3568 28.9885 25.4659 29.1113C25.5751 29.2341 25.6323 29.3944 25.6255 29.5586C25.5912 30.4276 25.3805 31.2806 25.0062 32.0656C24.6318 32.8506 24.1017 33.5512 23.448 34.1248C22.1938 35.1087 20.6285 35.6103 19.0361 35.5386Z" fill="white"/>
</svg>
