<svg width="30" height="30" viewBox="0 0 30 30" fill="none" xmlns="http://www.w3.org/2000/svg">
<path d="M11.5058 25.9667V22.1445C11.5058 21.1688 12.3109 20.3779 13.3041 20.3779H16.9346C17.4116 20.3779 17.869 20.564 18.2062 20.8953C18.5435 21.2266 18.7329 21.676 18.7329 22.1445V25.9667C18.7299 26.3723 18.8918 26.7623 19.1827 27.0502C19.4736 27.3381 19.8695 27.5 20.2824 27.5H22.7593C23.9161 27.5029 25.0266 27.0536 25.8456 26.251C26.6647 25.4485 27.125 24.3587 27.125 23.2223V12.3336C27.125 11.4156 26.7108 10.5448 25.994 9.95584L17.568 3.34484C16.1023 2.1857 14.0022 2.22313 12.5802 3.43372L4.34649 9.95584C3.59583 10.5274 3.14717 11.4008 3.125 12.3336V23.2112C3.125 25.5798 5.07959 27.5 7.49069 27.5H9.91105C10.7687 27.5 11.4656 26.8203 11.4718 25.9778L11.5058 25.9667Z" fill="white"/>
</svg>
