<svg width="28" height="35" viewBox="0 0 28 35" fill="none" xmlns="http://www.w3.org/2000/svg">
<path d="M14 34.7C10.2594 34.7 7.0745 33.3047 4.44537 30.5141C1.81512 27.7222 0.5 24.3498 0.5 20.3968C0.5 18.4053 0.844812 16.5567 1.53444 14.8512C2.22294 13.1469 3.2 11.646 4.46562 10.3484L14 0.299988L23.5344 10.3484C24.8 11.646 25.7776 13.1469 26.4673 14.8512C27.1558 16.5567 27.5 18.4053 27.5 20.3968C27.5 24.3498 26.1854 27.7222 23.5563 30.5141C20.9261 33.3047 17.7406 34.7 14 34.7ZM3.91719 19.3105H24.0828C23.9703 18.0733 23.6682 16.9267 23.1766 15.8705C22.6839 14.8144 22.0156 13.8488 21.1719 12.9737L14 5.36946L6.82812 12.9737C5.98438 13.8488 5.31612 14.8144 4.82337 15.8705C4.33175 16.9267 4.02969 18.0733 3.91719 19.3105Z" fill="white"/>
</svg>
