<svg width="152" height="131" viewBox="0 0 362 321" fill="none" xmlns="http://www.w3.org/2000/svg">
<path d="M337.575 257.991C338.301 258.41 339.23 258.162 339.643 257.432C354.35 231.432 362.059 202.049 362 172.16C361.94 141.765 353.849 111.925 338.548 85.6618C323.247 59.3987 301.277 37.645 274.865 22.6033C248.452 7.56156 218.534 -0.23411 188.14 0.00560894C157.745 0.245328 127.954 8.51193 101.781 23.9684C75.6094 39.4249 53.986 61.5224 39.1007 88.0235C24.2155 114.525 16.5969 144.488 17.0164 174.881C17.4289 204.767 25.5996 234.025 40.7155 259.79C41.1398 260.513 42.0727 260.747 42.7921 260.316C43.5114 259.886 43.7447 258.953 43.3206 258.23C28.4793 232.924 20.4572 204.19 20.0521 174.839C19.64 144.981 27.1244 115.545 41.7477 89.5103C56.371 63.4756 77.6138 41.7669 103.325 26.5825C129.037 11.3981 158.304 3.27695 188.163 3.04145C218.023 2.80595 247.415 10.4644 273.362 25.2414C299.31 40.0184 320.893 61.3893 335.925 87.1901C350.957 112.991 358.905 142.306 358.964 172.166C359.022 201.52 351.454 230.377 337.013 255.914C336.601 256.644 336.849 257.572 337.575 257.991Z" fill="#D9D9D9" fill-opacity="0.16"/>
<g filter="url(#filter0_d_1_97)">
<path d="M41.9936 259C17.5161 219.648 16.4126 173.635 18.9206 155.547C25.7422 114.977 38.4825 88.9452 44 81.0002" stroke="#CFF80B" stroke-width="3" stroke-linecap="round"/>
</g>
<circle cx="190" cy="173" r="63" stroke="#87888C" stroke-opacity="0.15" stroke-width="4"/>
<path d="M187.091 149.504H175.103V155.831C175.621 155.19 176.361 154.672 177.323 154.277C178.285 153.858 179.309 153.648 180.394 153.648C182.367 153.648 183.983 154.08 185.241 154.943C186.499 155.807 187.412 156.917 187.979 158.273C188.546 159.605 188.83 161.036 188.83 162.565C188.83 165.402 188.016 167.684 186.388 169.41C184.785 171.137 182.491 172 179.506 172C176.694 172 174.449 171.297 172.772 169.891C171.095 168.485 170.145 166.648 169.923 164.378H174.955C175.177 165.365 175.67 166.154 176.435 166.746C177.224 167.338 178.223 167.634 179.432 167.634C180.887 167.634 181.985 167.178 182.725 166.265C183.465 165.353 183.835 164.144 183.835 162.639C183.835 161.11 183.453 159.951 182.688 159.161C181.948 158.347 180.85 157.94 179.395 157.94C178.359 157.94 177.496 158.199 176.805 158.717C176.114 159.235 175.621 159.926 175.325 160.789H170.367V144.953H187.091V149.504ZM209.941 148.949L200.099 172H194.845L204.761 149.541H192.107V145.101H209.941V148.949Z" fill="white"/>
<path d="M172.244 207L167.402 201.402V207H165.35V194.49H167.402V200.196L172.262 194.49H174.836L169.4 200.754L174.926 207H172.244ZM188.747 196.92C189.527 196.92 190.223 197.082 190.835 197.406C191.459 197.73 191.945 198.21 192.293 198.846C192.653 199.482 192.833 200.25 192.833 201.15V207H190.799V201.456C190.799 200.568 190.577 199.89 190.133 199.422C189.689 198.942 189.083 198.702 188.315 198.702C187.547 198.702 186.935 198.942 186.479 199.422C186.035 199.89 185.813 200.568 185.813 201.456V207H183.779V201.456C183.779 200.568 183.557 199.89 183.113 199.422C182.669 198.942 182.063 198.702 181.295 198.702C180.527 198.702 179.915 198.942 179.459 199.422C179.015 199.89 178.793 200.568 178.793 201.456V207H176.741V197.082H178.793V198.216C179.129 197.808 179.555 197.49 180.071 197.262C180.587 197.034 181.139 196.92 181.727 196.92C182.519 196.92 183.227 197.088 183.851 197.424C184.475 197.76 184.955 198.246 185.291 198.882C185.591 198.282 186.059 197.808 186.695 197.46C187.331 197.1 188.015 196.92 188.747 196.92ZM202.104 190.008L197.208 210.15H195.192L200.07 190.008H202.104ZM209.82 196.92C210.576 196.92 211.248 197.082 211.836 197.406C212.436 197.73 212.904 198.21 213.24 198.846C213.588 199.482 213.762 200.25 213.762 201.15V207H211.728V201.456C211.728 200.568 211.506 199.89 211.062 199.422C210.618 198.942 210.012 198.702 209.244 198.702C208.476 198.702 207.864 198.942 207.408 199.422C206.964 199.89 206.742 200.568 206.742 201.456V207H204.69V193.68H206.742V198.234C207.09 197.814 207.528 197.49 208.056 197.262C208.596 197.034 209.184 196.92 209.82 196.92Z" fill="#87888C"/>
<path d="M327.423 250.741L299.576 234.602" stroke="#87888C" stroke-opacity="0.2" stroke-width="2.41451" stroke-linecap="round"/>
<path d="M340.807 220.702L331.956 217.781" stroke="#87888C" stroke-opacity="0.2" stroke-width="2.41451" stroke-linecap="round"/>
<path d="M334.363 236.122L326.079 231.957" stroke="#87888C" stroke-opacity="0.2" stroke-width="2.41451" stroke-linecap="round"/>
<path d="M349 188.635L339.604 188.191" stroke="#87888C" stroke-opacity="0.2" stroke-width="2.41451" stroke-linecap="round"/>
<path d="M346.082 205.277L336.068 202.994" stroke="#87888C" stroke-opacity="0.2" stroke-width="2.41451" stroke-linecap="round"/>
<path d="M241.55 22.215L238.184 31.5267" stroke="#87888C" stroke-opacity="0.2" stroke-width="2.41451" stroke-linecap="round"/>
<path d="M256.805 27.7535L252.265 37.0868" stroke="#87888C" stroke-opacity="0.2" stroke-width="2.41451" stroke-linecap="round"/>
<path d="M270.726 35.6569L254.185 64.327" stroke="#87888C" stroke-opacity="0.2" stroke-width="2.41451" stroke-linecap="round"/>
<path d="M284.977 44.3843L278.657 52.5169" stroke="#87888C" stroke-opacity="0.2" stroke-width="2.41451" stroke-linecap="round"/>
<path d="M297.308 55.4883L291.555 62.3772" stroke="#87888C" stroke-opacity="0.2" stroke-width="2.41451" stroke-linecap="round"/>
<path d="M309.624 66.5757L302.707 74.1026" stroke="#87888C" stroke-opacity="0.2" stroke-width="2.41451" stroke-linecap="round"/>
<path d="M320.195 79.5127L312.084 85.8281" stroke="#87888C" stroke-opacity="0.2" stroke-width="2.41451" stroke-linecap="round"/>
<path d="M328.32 92.9012L301.025 110.052" stroke="#87888C" stroke-opacity="0.2" stroke-width="2.41451" stroke-linecap="round"/>
<path d="M336.638 107.87L327.911 112.346" stroke="#87888C" stroke-opacity="0.2" stroke-width="2.41451" stroke-linecap="round"/>
<path d="M342.515 123.279L333.181 126.533" stroke="#87888C" stroke-opacity="0.2" stroke-width="2.41451" stroke-linecap="round"/>
<path d="M345.464 139.931L336.686 141.325" stroke="#87888C" stroke-opacity="0.2" stroke-width="2.41451" stroke-linecap="round"/>
<path d="M348.403 155.962L339.614 156.74" stroke="#87888C" stroke-opacity="0.2" stroke-width="2.41451" stroke-linecap="round"/>
<path d="M224.541 17.9152L222.924 26.5782" stroke="#87888C" stroke-opacity="0.2" stroke-width="2.41451" stroke-linecap="round"/>
<path d="M126.55 26.6008L130.82 36.3892" stroke="#87888C" stroke-opacity="0.2" stroke-width="2.41451" stroke-linecap="round"/>
<path d="M141.799 20.429L145.493 30.8445" stroke="#87888C" stroke-opacity="0.2" stroke-width="2.41451" stroke-linecap="round"/>
<path d="M158.227 16.7141L160.161 27.162" stroke="#87888C" stroke-opacity="0.2" stroke-width="2.41451" stroke-linecap="round"/>
<path d="M175.242 14.2322L175.416 24.7124" stroke="#87888C" stroke-opacity="0.2" stroke-width="2.41451" stroke-linecap="round"/>
<path d="M191.48 13.0002L192.035 46.2904" stroke="#87888C" stroke-opacity="0.2" stroke-width="2.41451" stroke-linecap="round"/>
<path d="M208.098 14.2322L208.272 24.7124" stroke="#87888C" stroke-opacity="0.2" stroke-width="2.41451" stroke-linecap="round"/>
<path d="M60.8594 76.5857L69.7816 83.822" stroke="#87888C" stroke-opacity="0.2" stroke-width="2.41451" stroke-linecap="round"/>
<path d="M72.0117 64.8655L80.3371 71.4961" stroke="#87888C" stroke-opacity="0.2" stroke-width="2.41451" stroke-linecap="round"/>
<path d="M84.3276 53.1404L91.49 60.409" stroke="#87888C" stroke-opacity="0.2" stroke-width="2.41451" stroke-linecap="round"/>
<path d="M97.23 42.6472L103.229 50.5538" stroke="#87888C" stroke-opacity="0.2" stroke-width="2.41451" stroke-linecap="round"/>
<path d="M111.143 34.1189L128.626 62.1649" stroke="#87888C" stroke-opacity="0.2" stroke-width="2.41451" stroke-linecap="round"/>
<g filter="url(#filter1_d_1_97)">
<path d="M32.1821 186.341L41.5476 184.935" stroke="#CFF80B" stroke-width="2.41451" stroke-linecap="round"/>
</g>
<g filter="url(#filter2_d_1_97)">
<path d="M31 172.981L62.6775 172.407" stroke="#CFF80B" stroke-width="2.41451" stroke-linecap="round"/>
</g>
<g filter="url(#filter3_d_1_97)">
<path d="M43.3554 233.827L53.8429 229.318" stroke="#CFF80B" stroke-width="2.41451" stroke-linecap="round"/>
</g>
<g filter="url(#filter4_d_1_97)">
<path d="M38.059 218.408L47.9906 215.759" stroke="#CFF80B" stroke-width="2.41451" stroke-linecap="round"/>
</g>
<g filter="url(#filter5_d_1_97)">
<path d="M34.5341 202.372L43.8894 200.35" stroke="#CFF80B" stroke-width="2.41451" stroke-linecap="round"/>
</g>
<g filter="url(#filter6_d_1_97)">
<path d="M52.8307 248.154L78.983 232.874" stroke="#CFF80B" stroke-width="2.41451" stroke-linecap="round"/>
</g>
<g filter="url(#filter7_d_1_97)">
<path d="M31.585 153.668L41.5575 153.485" stroke="#CFF80B" stroke-width="2.41451" stroke-linecap="round"/>
</g>
<g filter="url(#filter8_d_1_97)">
<path d="M33.9062 136.404L43.93 139.304" stroke="#CFF80B" stroke-width="2.41451" stroke-linecap="round"/>
</g>
<g filter="url(#filter9_d_1_97)">
<path d="M38.5947 120.985L48.0421 124.511" stroke="#CFF80B" stroke-width="2.41451" stroke-linecap="round"/>
</g>
<g filter="url(#filter10_d_1_97)">
<path d="M45.0386 105.565L53.9198 110.335" stroke="#CFF80B" stroke-width="2.41451" stroke-linecap="round"/>
</g>
<g filter="url(#filter11_d_1_97)">
<path d="M52.5698 90.9456L81.0042 107.074" stroke="#CFF80B" stroke-width="2.41451" stroke-linecap="round"/>
</g>
<path d="M348.993 174.244L316.729 174.836" stroke="#87888C" stroke-opacity="0.2" stroke-width="2.41451" stroke-linecap="round"/>
<path d="M90.968 227.52C91.992 226.635 92.7973 225.91 93.384 225.344C93.9813 224.768 94.4773 224.171 94.872 223.552C95.2667 222.934 95.464 222.315 95.464 221.696C95.464 221.056 95.3093 220.555 95 220.192C94.7013 219.83 94.2267 219.648 93.576 219.648C92.9467 219.648 92.456 219.851 92.104 220.256C91.7627 220.651 91.5813 221.184 91.56 221.856H89.8C89.832 220.64 90.1947 219.712 90.888 219.072C91.592 218.422 92.4827 218.096 93.56 218.096C94.7227 218.096 95.6293 218.416 96.28 219.056C96.9413 219.696 97.272 220.55 97.272 221.616C97.272 222.384 97.0747 223.126 96.68 223.84C96.296 224.544 95.832 225.179 95.288 225.744C94.7547 226.299 94.072 226.944 93.24 227.68L92.52 228.32H97.592V229.84H89.816V228.512L90.968 227.52ZM99.1944 224.016C99.1944 222.171 99.5037 220.731 100.122 219.696C100.752 218.651 101.829 218.128 103.354 218.128C104.88 218.128 105.952 218.651 106.57 219.696C107.2 220.731 107.514 222.171 107.514 224.016C107.514 225.883 107.2 227.344 106.57 228.4C105.952 229.446 104.88 229.968 103.354 229.968C101.829 229.968 100.752 229.446 100.122 228.4C99.5037 227.344 99.1944 225.883 99.1944 224.016ZM105.722 224.016C105.722 223.152 105.664 222.422 105.546 221.824C105.44 221.227 105.216 220.742 104.874 220.368C104.533 219.984 104.026 219.792 103.354 219.792C102.682 219.792 102.176 219.984 101.834 220.368C101.493 220.742 101.264 221.227 101.146 221.824C101.04 222.422 100.986 223.152 100.986 224.016C100.986 224.912 101.04 225.664 101.146 226.272C101.253 226.88 101.477 227.371 101.818 227.744C102.17 228.118 102.682 228.304 103.354 228.304C104.026 228.304 104.533 228.118 104.874 227.744C105.226 227.371 105.456 226.88 105.562 226.272C105.669 225.664 105.722 224.912 105.722 224.016Z" fill="white"/>
<path d="M74.736 176.568V175.192L80.112 167.48H82.32V174.984H83.808V176.568H82.32V179H80.528V176.568H74.736ZM80.608 169.336L76.832 174.984H80.608V169.336ZM85.3194 173.016C85.3194 171.171 85.6287 169.731 86.2474 168.696C86.8767 167.651 87.954 167.128 89.4794 167.128C91.0047 167.128 92.0767 167.651 92.6954 168.696C93.3247 169.731 93.6394 171.171 93.6394 173.016C93.6394 174.883 93.3247 176.344 92.6954 177.4C92.0767 178.446 91.0047 178.968 89.4794 178.968C87.954 178.968 86.8767 178.446 86.2474 177.4C85.6287 176.344 85.3194 174.883 85.3194 173.016ZM91.8474 173.016C91.8474 172.152 91.7887 171.422 91.6714 170.824C91.5647 170.227 91.3407 169.742 90.9994 169.368C90.658 168.984 90.1514 168.792 89.4794 168.792C88.8074 168.792 88.3007 168.984 87.9594 169.368C87.618 169.742 87.3887 170.227 87.2714 170.824C87.1647 171.422 87.1114 172.152 87.1114 173.016C87.1114 173.912 87.1647 174.664 87.2714 175.272C87.378 175.88 87.602 176.371 87.9434 176.744C88.2954 177.118 88.8074 177.304 89.4794 177.304C90.1514 177.304 90.658 177.118 90.9994 176.744C91.3514 176.371 91.5807 175.88 91.6874 175.272C91.794 174.664 91.8474 173.912 91.8474 173.016Z" fill="white"/>
<path d="M97.232 110.04C97.1147 109.55 96.9013 109.182 96.592 108.936C96.2827 108.691 95.8507 108.568 95.296 108.568C94.4533 108.568 93.824 108.894 93.408 109.544C92.992 110.184 92.7733 111.251 92.752 112.744C93.0293 112.275 93.4347 111.912 93.968 111.656C94.5013 111.4 95.0773 111.272 95.696 111.272C96.4 111.272 97.0187 111.427 97.552 111.736C98.096 112.035 98.5173 112.472 98.816 113.048C99.1253 113.624 99.28 114.312 99.28 115.112C99.28 115.859 99.1307 116.526 98.832 117.112C98.544 117.699 98.112 118.163 97.536 118.504C96.96 118.835 96.2667 119 95.456 119C94.3573 119 93.4933 118.76 92.864 118.28C92.2453 117.79 91.808 117.102 91.552 116.216C91.3067 115.331 91.184 114.227 91.184 112.904C91.184 109 92.56 107.048 95.312 107.048C96.3787 107.048 97.216 107.336 97.824 107.912C98.4427 108.488 98.8053 109.198 98.912 110.04H97.232ZM95.296 112.808C94.6453 112.808 94.0907 113.006 93.632 113.4C93.184 113.784 92.96 114.344 92.96 115.08C92.96 115.816 93.168 116.403 93.584 116.84C94.0107 117.267 94.6027 117.48 95.36 117.48C96.032 117.48 96.56 117.272 96.944 116.856C97.3387 116.44 97.536 115.886 97.536 115.192C97.536 114.467 97.344 113.891 96.96 113.464C96.5867 113.027 96.032 112.808 95.296 112.808ZM101.226 113.016C101.226 111.171 101.535 109.731 102.154 108.696C102.783 107.651 103.86 107.128 105.386 107.128C106.911 107.128 107.983 107.651 108.602 108.696C109.231 109.731 109.546 111.171 109.546 113.016C109.546 114.883 109.231 116.344 108.602 117.4C107.983 118.446 106.911 118.968 105.386 118.968C103.86 118.968 102.783 118.446 102.154 117.4C101.535 116.344 101.226 114.883 101.226 113.016ZM107.754 113.016C107.754 112.152 107.695 111.422 107.578 110.824C107.471 110.227 107.247 109.742 106.906 109.368C106.564 108.984 106.058 108.792 105.386 108.792C104.714 108.792 104.207 108.984 103.866 109.368C103.524 109.742 103.295 110.227 103.178 110.824C103.071 111.422 103.018 112.152 103.018 113.016C103.018 113.912 103.071 114.664 103.178 115.272C103.284 115.88 103.508 116.371 103.85 116.744C104.202 117.118 104.714 117.304 105.386 117.304C106.058 117.304 106.564 117.118 106.906 116.744C107.258 116.371 107.487 115.88 107.594 115.272C107.7 114.664 107.754 113.912 107.754 113.016Z" fill="white"/>
<path d="M134.928 75.9042C133.819 75.3496 133.264 74.4749 133.264 73.2802C133.264 72.7042 133.408 72.1762 133.696 71.6962C133.984 71.2162 134.416 70.8376 134.992 70.5602C135.568 70.2722 136.272 70.1282 137.104 70.1282C137.925 70.1282 138.624 70.2722 139.2 70.5602C139.787 70.8376 140.224 71.2162 140.512 71.6962C140.8 72.1762 140.944 72.7042 140.944 73.2802C140.944 73.8776 140.789 74.4056 140.48 74.8642C140.181 75.3122 139.781 75.6589 139.28 75.9042C139.888 76.1282 140.368 76.4962 140.72 77.0082C141.072 77.5096 141.248 78.1016 141.248 78.7842C141.248 79.4776 141.072 80.0909 140.72 80.6242C140.368 81.1576 139.877 81.5682 139.248 81.8562C138.619 82.1442 137.904 82.2882 137.104 82.2882C136.304 82.2882 135.589 82.1442 134.96 81.8562C134.341 81.5682 133.856 81.1576 133.504 80.6242C133.152 80.0909 132.976 79.4776 132.976 78.7842C132.976 78.0909 133.152 77.4936 133.504 76.9922C133.856 76.4909 134.331 76.1282 134.928 75.9042ZM139.2 73.5042C139.2 72.9069 139.013 72.4482 138.64 72.1282C138.267 71.8082 137.755 71.6482 137.104 71.6482C136.464 71.6482 135.957 71.8082 135.584 72.1282C135.211 72.4482 135.024 72.9122 135.024 73.5202C135.024 74.0536 135.216 74.4909 135.6 74.8322C135.995 75.1629 136.496 75.3282 137.104 75.3282C137.712 75.3282 138.213 75.1576 138.608 74.8162C139.003 74.4749 139.2 74.0376 139.2 73.5042ZM137.104 76.7042C136.4 76.7042 135.824 76.8802 135.376 77.2322C134.939 77.5736 134.72 78.0696 134.72 78.7202C134.72 79.3282 134.933 79.8242 135.36 80.2082C135.787 80.5816 136.368 80.7682 137.104 80.7682C137.829 80.7682 138.4 80.5762 138.816 80.1922C139.243 79.8082 139.456 79.3176 139.456 78.7202C139.456 78.0802 139.237 77.5842 138.8 77.2322C138.373 76.8802 137.808 76.7042 137.104 76.7042ZM143.163 76.0162C143.163 74.1709 143.472 72.7309 144.091 71.6962C144.72 70.6509 145.798 70.1282 147.323 70.1282C148.848 70.1282 149.92 70.6509 150.539 71.6962C151.168 72.7309 151.483 74.1709 151.483 76.0162C151.483 77.8829 151.168 79.3442 150.539 80.4002C149.92 81.4456 148.848 81.9682 147.323 81.9682C145.798 81.9682 144.72 81.4456 144.091 80.4002C143.472 79.3442 143.163 77.8829 143.163 76.0162ZM149.691 76.0162C149.691 75.1522 149.632 74.4216 149.515 73.8242C149.408 73.2269 149.184 72.7416 148.843 72.3682C148.502 71.9842 147.995 71.7922 147.323 71.7922C146.651 71.7922 146.144 71.9842 145.803 72.3682C145.462 72.7416 145.232 73.2269 145.115 73.8242C145.008 74.4216 144.955 75.1522 144.955 76.0162C144.955 76.9122 145.008 77.6642 145.115 78.2722C145.222 78.8802 145.446 79.3709 145.787 79.7442C146.139 80.1176 146.651 80.3042 147.323 80.3042C147.995 80.3042 148.502 80.1176 148.843 79.7442C149.195 79.3709 149.424 78.8802 149.531 78.2722C149.638 77.6642 149.691 76.9122 149.691 76.0162Z" fill="white"/>
<path d="M178.72 60.0002V58.3362H182.048V70.0002H180.208V60.0002H178.72ZM184.554 64.0162C184.554 62.1709 184.863 60.7309 185.482 59.6962C186.111 58.6509 187.188 58.1282 188.714 58.1282C190.239 58.1282 191.311 58.6509 191.93 59.6962C192.559 60.7309 192.874 62.1709 192.874 64.0162C192.874 65.8829 192.559 67.3442 191.93 68.4002C191.311 69.4456 190.239 69.9682 188.714 69.9682C187.188 69.9682 186.111 69.4456 185.482 68.4002C184.863 67.3442 184.554 65.8829 184.554 64.0162ZM191.082 64.0162C191.082 63.1522 191.023 62.4216 190.906 61.8242C190.799 61.2269 190.575 60.7416 190.234 60.3682C189.892 59.9842 189.386 59.7922 188.714 59.7922C188.042 59.7922 187.535 59.9842 187.194 60.3682C186.852 60.7416 186.623 61.2269 186.506 61.8242C186.399 62.4216 186.346 63.1522 186.346 64.0162C186.346 64.9122 186.399 65.6642 186.506 66.2722C186.612 66.8802 186.836 67.3709 187.178 67.7442C187.53 68.1176 188.042 68.3042 188.714 68.3042C189.386 68.3042 189.892 68.1176 190.234 67.7442C190.586 67.3709 190.815 66.8802 190.922 66.2722C191.028 65.6642 191.082 64.9122 191.082 64.0162ZM194.804 64.0162C194.804 62.1709 195.113 60.7309 195.732 59.6962C196.361 58.6509 197.438 58.1282 198.964 58.1282C200.489 58.1282 201.561 58.6509 202.18 59.6962C202.809 60.7309 203.124 62.1709 203.124 64.0162C203.124 65.8829 202.809 67.3442 202.18 68.4002C201.561 69.4456 200.489 69.9682 198.964 69.9682C197.438 69.9682 196.361 69.4456 195.732 68.4002C195.113 67.3442 194.804 65.8829 194.804 64.0162ZM201.332 64.0162C201.332 63.1522 201.273 62.4216 201.156 61.8242C201.049 61.2269 200.825 60.7416 200.484 60.3682C200.142 59.9842 199.636 59.7922 198.964 59.7922C198.292 59.7922 197.785 59.9842 197.444 60.3682C197.102 60.7416 196.873 61.2269 196.756 61.8242C196.649 62.4216 196.596 63.1522 196.596 64.0162C196.596 64.9122 196.649 65.6642 196.756 66.2722C196.862 66.8802 197.086 67.3709 197.428 67.7442C197.78 68.1176 198.292 68.3042 198.964 68.3042C199.636 68.3042 200.142 68.1176 200.484 67.7442C200.836 67.3709 201.065 66.8802 201.172 66.2722C201.278 65.6642 201.332 64.9122 201.332 64.0162Z" fill="white"/>
<path d="M234.72 73.0002V71.3362H238.048V83.0002H236.208V73.0002H234.72ZM241.562 80.5202C242.586 79.6349 243.391 78.9096 243.978 78.3442C244.575 77.7682 245.071 77.1709 245.466 76.5522C245.86 75.9336 246.058 75.3149 246.058 74.6962C246.058 74.0562 245.903 73.5549 245.594 73.1922C245.295 72.8296 244.82 72.6482 244.17 72.6482C243.54 72.6482 243.05 72.8509 242.698 73.2562C242.356 73.6509 242.175 74.1842 242.154 74.8562H240.394C240.426 73.6402 240.788 72.7122 241.482 72.0722C242.186 71.4216 243.076 71.0962 244.154 71.0962C245.316 71.0962 246.223 71.4162 246.874 72.0562C247.535 72.6962 247.866 73.5496 247.866 74.6162C247.866 75.3842 247.668 76.1256 247.274 76.8402C246.89 77.5442 246.426 78.1789 245.882 78.7442C245.348 79.2989 244.666 79.9442 243.834 80.6802L243.114 81.3202H248.186V82.8402H240.41V81.5122L241.562 80.5202ZM249.788 77.0162C249.788 75.1709 250.097 73.7309 250.716 72.6962C251.345 71.6509 252.423 71.1282 253.948 71.1282C255.473 71.1282 256.545 71.6509 257.164 72.6962C257.793 73.7309 258.108 75.1709 258.108 77.0162C258.108 78.8829 257.793 80.3442 257.164 81.4002C256.545 82.4456 255.473 82.9682 253.948 82.9682C252.423 82.9682 251.345 82.4456 250.716 81.4002C250.097 80.3442 249.788 78.8829 249.788 77.0162ZM256.316 77.0162C256.316 76.1522 256.257 75.4216 256.14 74.8242C256.033 74.2269 255.809 73.7416 255.468 73.3682C255.127 72.9842 254.62 72.7922 253.948 72.7922C253.276 72.7922 252.769 72.9842 252.428 73.3682C252.087 73.7416 251.857 74.2269 251.74 74.8242C251.633 75.4216 251.58 76.1522 251.58 77.0162C251.58 77.9122 251.633 78.6642 251.74 79.2722C251.847 79.8802 252.071 80.3709 252.412 80.7442C252.764 81.1176 253.276 81.3042 253.948 81.3042C254.62 81.3042 255.127 81.1176 255.468 80.7442C255.82 80.3709 256.049 79.8802 256.156 79.2722C256.263 78.6642 256.316 77.9122 256.316 77.0162Z" fill="white"/>
<path d="M269.72 115V113.336H273.048V125H271.208V115H269.72ZM275.33 122.568V121.192L280.706 113.48H282.914V120.984H284.402V122.568H282.914V125H281.122V122.568H275.33ZM281.202 115.336L277.426 120.984H281.202V115.336ZM285.913 119.016C285.913 117.171 286.222 115.731 286.841 114.696C287.47 113.651 288.548 113.128 290.073 113.128C291.598 113.128 292.67 113.651 293.289 114.696C293.918 115.731 294.233 117.171 294.233 119.016C294.233 120.883 293.918 122.344 293.289 123.4C292.67 124.446 291.598 124.968 290.073 124.968C288.548 124.968 287.47 124.446 286.841 123.4C286.222 122.344 285.913 120.883 285.913 119.016ZM292.441 119.016C292.441 118.152 292.382 117.422 292.265 116.824C292.158 116.227 291.934 115.742 291.593 115.368C291.252 114.984 290.745 114.792 290.073 114.792C289.401 114.792 288.894 114.984 288.553 115.368C288.212 115.742 287.982 116.227 287.865 116.824C287.758 117.422 287.705 118.152 287.705 119.016C287.705 119.912 287.758 120.664 287.865 121.272C287.972 121.88 288.196 122.371 288.537 122.744C288.889 123.118 289.401 123.304 290.073 123.304C290.745 123.304 291.252 123.118 291.593 122.744C291.945 122.371 292.174 121.88 292.281 121.272C292.388 120.664 292.441 119.912 292.441 119.016Z" fill="white"/>
<path d="M279.72 169V167.336H283.048V179H281.208V169H279.72ZM291.826 170.04C291.708 169.55 291.495 169.182 291.186 168.936C290.876 168.691 290.444 168.568 289.89 168.568C289.047 168.568 288.418 168.894 288.002 169.544C287.586 170.184 287.367 171.251 287.346 172.744C287.623 172.275 288.028 171.912 288.562 171.656C289.095 171.4 289.671 171.272 290.29 171.272C290.994 171.272 291.612 171.427 292.146 171.736C292.69 172.035 293.111 172.472 293.41 173.048C293.719 173.624 293.874 174.312 293.874 175.112C293.874 175.859 293.724 176.526 293.426 177.112C293.138 177.699 292.706 178.163 292.13 178.504C291.554 178.835 290.86 179 290.05 179C288.951 179 288.087 178.76 287.458 178.28C286.839 177.79 286.402 177.102 286.146 176.216C285.9 175.331 285.778 174.227 285.778 172.904C285.778 169 287.154 167.048 289.906 167.048C290.972 167.048 291.81 167.336 292.418 167.912C293.036 168.488 293.399 169.198 293.506 170.04H291.826ZM289.89 172.808C289.239 172.808 288.684 173.006 288.226 173.4C287.778 173.784 287.554 174.344 287.554 175.08C287.554 175.816 287.762 176.403 288.178 176.84C288.604 177.267 289.196 177.48 289.954 177.48C290.626 177.48 291.154 177.272 291.538 176.856C291.932 176.44 292.13 175.886 292.13 175.192C292.13 174.467 291.938 173.891 291.554 173.464C291.18 173.027 290.626 172.808 289.89 172.808ZM295.819 173.016C295.819 171.171 296.129 169.731 296.747 168.696C297.377 167.651 298.454 167.128 299.979 167.128C301.505 167.128 302.577 167.651 303.195 168.696C303.825 169.731 304.139 171.171 304.139 173.016C304.139 174.883 303.825 176.344 303.195 177.4C302.577 178.446 301.505 178.968 299.979 178.968C298.454 178.968 297.377 178.446 296.747 177.4C296.129 176.344 295.819 174.883 295.819 173.016ZM302.347 173.016C302.347 172.152 302.289 171.422 302.171 170.824C302.065 170.227 301.841 169.742 301.499 169.368C301.158 168.984 300.651 168.792 299.979 168.792C299.307 168.792 298.801 168.984 298.459 169.368C298.118 169.742 297.889 170.227 297.771 170.824C297.665 171.422 297.611 172.152 297.611 173.016C297.611 173.912 297.665 174.664 297.771 175.272C297.878 175.88 298.102 176.371 298.443 176.744C298.795 177.118 299.307 177.304 299.979 177.304C300.651 177.304 301.158 177.118 301.499 176.744C301.851 176.371 302.081 175.88 302.187 175.272C302.294 174.664 302.347 173.912 302.347 173.016Z" fill="white"/>
<path d="M265.72 221V219.336H269.048V231H267.208V221H265.72ZM273.522 224.904C272.412 224.35 271.858 223.475 271.858 222.28C271.858 221.704 272.002 221.176 272.29 220.696C272.578 220.216 273.01 219.838 273.586 219.56C274.162 219.272 274.866 219.128 275.698 219.128C276.519 219.128 277.218 219.272 277.794 219.56C278.38 219.838 278.818 220.216 279.106 220.696C279.394 221.176 279.538 221.704 279.538 222.28C279.538 222.878 279.383 223.406 279.074 223.864C278.775 224.312 278.375 224.659 277.874 224.904C278.482 225.128 278.962 225.496 279.314 226.008C279.666 226.51 279.842 227.102 279.842 227.784C279.842 228.478 279.666 229.091 279.314 229.624C278.962 230.158 278.471 230.568 277.842 230.856C277.212 231.144 276.498 231.288 275.698 231.288C274.898 231.288 274.183 231.144 273.554 230.856C272.935 230.568 272.45 230.158 272.098 229.624C271.746 229.091 271.57 228.478 271.57 227.784C271.57 227.091 271.746 226.494 272.098 225.992C272.45 225.491 272.924 225.128 273.522 224.904ZM277.794 222.504C277.794 221.907 277.607 221.448 277.234 221.128C276.86 220.808 276.348 220.648 275.698 220.648C275.058 220.648 274.551 220.808 274.178 221.128C273.804 221.448 273.618 221.912 273.618 222.52C273.618 223.054 273.81 223.491 274.194 223.832C274.588 224.163 275.09 224.328 275.698 224.328C276.306 224.328 276.807 224.158 277.202 223.816C277.596 223.475 277.794 223.038 277.794 222.504ZM275.698 225.704C274.994 225.704 274.418 225.88 273.97 226.232C273.532 226.574 273.314 227.07 273.314 227.72C273.314 228.328 273.527 228.824 273.954 229.208C274.38 229.582 274.962 229.768 275.698 229.768C276.423 229.768 276.994 229.576 277.41 229.192C277.836 228.808 278.05 228.318 278.05 227.72C278.05 227.08 277.831 226.584 277.394 226.232C276.967 225.88 276.402 225.704 275.698 225.704ZM281.757 225.016C281.757 223.171 282.066 221.731 282.685 220.696C283.314 219.651 284.392 219.128 285.917 219.128C287.442 219.128 288.514 219.651 289.133 220.696C289.762 221.731 290.077 223.171 290.077 225.016C290.077 226.883 289.762 228.344 289.133 229.4C288.514 230.446 287.442 230.968 285.917 230.968C284.392 230.968 283.314 230.446 282.685 229.4C282.066 228.344 281.757 226.883 281.757 225.016ZM288.285 225.016C288.285 224.152 288.226 223.422 288.109 222.824C288.002 222.227 287.778 221.742 287.437 221.368C287.096 220.984 286.589 220.792 285.917 220.792C285.245 220.792 284.738 220.984 284.397 221.368C284.056 221.742 283.826 222.227 283.709 222.824C283.602 223.422 283.549 224.152 283.549 225.016C283.549 225.912 283.602 226.664 283.709 227.272C283.816 227.88 284.04 228.371 284.381 228.744C284.733 229.118 285.245 229.304 285.917 229.304C286.589 229.304 287.096 229.118 287.437 228.744C287.789 228.371 288.018 227.88 288.125 227.272C288.232 226.664 288.285 225.912 288.285 225.016Z" fill="white"/>
<defs>
<filter id="filter0_d_1_97" x="0.500488" y="67.5001" width="60.9995" height="213" filterUnits="userSpaceOnUse" color-interpolation-filters="sRGB">
<feFlood flood-opacity="0" result="BackgroundImageFix"/>
<feColorMatrix in="SourceAlpha" type="matrix" values="0 0 0 0 0 0 0 0 0 0 0 0 0 0 0 0 0 0 127 0" result="hardAlpha"/>
<feOffset dy="4"/>
<feGaussianBlur stdDeviation="8"/>
<feComposite in2="hardAlpha" operator="out"/>
<feColorMatrix type="matrix" values="0 0 0 0 1 0 0 0 0 1 0 0 0 0 1 0 0 0 0.71 0"/>
<feBlend mode="normal" in2="BackgroundImageFix" result="effect1_dropShadow_1_97"/>
<feBlend mode="normal" in="SourceGraphic" in2="effect1_dropShadow_1_97" result="shape"/>
</filter>
<filter id="filter1_d_1_97" x="14.9746" y="168.728" width="43.7803" height="35.8201" filterUnits="userSpaceOnUse" color-interpolation-filters="sRGB">
<feFlood flood-opacity="0" result="BackgroundImageFix"/>
<feColorMatrix in="SourceAlpha" type="matrix" values="0 0 0 0 0 0 0 0 0 0 0 0 0 0 0 0 0 0 127 0" result="hardAlpha"/>
<feOffset dy="1"/>
<feGaussianBlur stdDeviation="8"/>
<feComposite in2="hardAlpha" operator="out"/>
<feColorMatrix type="matrix" values="0 0 0 0 1 0 0 0 0 1 0 0 0 0 1 0 0 0 0.28 0"/>
<feBlend mode="normal" in2="BackgroundImageFix" result="effect1_dropShadow_1_97"/>
<feBlend mode="normal" in="SourceGraphic" in2="effect1_dropShadow_1_97" result="shape"/>
</filter>
<filter id="filter2_d_1_97" x="13.793" y="156.2" width="66.0918" height="34.9881" filterUnits="userSpaceOnUse" color-interpolation-filters="sRGB">
<feFlood flood-opacity="0" result="BackgroundImageFix"/>
<feColorMatrix in="SourceAlpha" type="matrix" values="0 0 0 0 0 0 0 0 0 0 0 0 0 0 0 0 0 0 127 0" result="hardAlpha"/>
<feOffset dy="1"/>
<feGaussianBlur stdDeviation="8"/>
<feComposite in2="hardAlpha" operator="out"/>
<feColorMatrix type="matrix" values="0 0 0 0 1 0 0 0 0 1 0 0 0 0 1 0 0 0 0.28 0"/>
<feBlend mode="normal" in2="BackgroundImageFix" result="effect1_dropShadow_1_97"/>
<feBlend mode="normal" in="SourceGraphic" in2="effect1_dropShadow_1_97" result="shape"/>
</filter>
<filter id="filter3_d_1_97" x="26.1479" y="213.111" width="44.9023" height="38.9243" filterUnits="userSpaceOnUse" color-interpolation-filters="sRGB">
<feFlood flood-opacity="0" result="BackgroundImageFix"/>
<feColorMatrix in="SourceAlpha" type="matrix" values="0 0 0 0 0 0 0 0 0 0 0 0 0 0 0 0 0 0 127 0" result="hardAlpha"/>
<feOffset dy="1"/>
<feGaussianBlur stdDeviation="8"/>
<feComposite in2="hardAlpha" operator="out"/>
<feColorMatrix type="matrix" values="0 0 0 0 1 0 0 0 0 1 0 0 0 0 1 0 0 0 0.28 0"/>
<feBlend mode="normal" in2="BackgroundImageFix" result="effect1_dropShadow_1_97"/>
<feBlend mode="normal" in="SourceGraphic" in2="effect1_dropShadow_1_97" result="shape"/>
</filter>
<filter id="filter4_d_1_97" x="20.8516" y="199.552" width="44.3467" height="37.064" filterUnits="userSpaceOnUse" color-interpolation-filters="sRGB">
<feFlood flood-opacity="0" result="BackgroundImageFix"/>
<feColorMatrix in="SourceAlpha" type="matrix" values="0 0 0 0 0 0 0 0 0 0 0 0 0 0 0 0 0 0 127 0" result="hardAlpha"/>
<feOffset dy="1"/>
<feGaussianBlur stdDeviation="8"/>
<feComposite in2="hardAlpha" operator="out"/>
<feColorMatrix type="matrix" values="0 0 0 0 1 0 0 0 0 1 0 0 0 0 1 0 0 0 0.28 0"/>
<feBlend mode="normal" in2="BackgroundImageFix" result="effect1_dropShadow_1_97"/>
<feBlend mode="normal" in="SourceGraphic" in2="effect1_dropShadow_1_97" result="shape"/>
</filter>
<filter id="filter5_d_1_97" x="17.3267" y="184.143" width="43.77" height="36.4367" filterUnits="userSpaceOnUse" color-interpolation-filters="sRGB">
<feFlood flood-opacity="0" result="BackgroundImageFix"/>
<feColorMatrix in="SourceAlpha" type="matrix" values="0 0 0 0 0 0 0 0 0 0 0 0 0 0 0 0 0 0 127 0" result="hardAlpha"/>
<feOffset dy="1"/>
<feGaussianBlur stdDeviation="8"/>
<feComposite in2="hardAlpha" operator="out"/>
<feColorMatrix type="matrix" values="0 0 0 0 1 0 0 0 0 1 0 0 0 0 1 0 0 0 0.28 0"/>
<feBlend mode="normal" in2="BackgroundImageFix" result="effect1_dropShadow_1_97"/>
<feBlend mode="normal" in="SourceGraphic" in2="effect1_dropShadow_1_97" result="shape"/>
</filter>
<filter id="filter6_d_1_97" x="35.6235" y="216.666" width="60.5669" height="49.6947" filterUnits="userSpaceOnUse" color-interpolation-filters="sRGB">
<feFlood flood-opacity="0" result="BackgroundImageFix"/>
<feColorMatrix in="SourceAlpha" type="matrix" values="0 0 0 0 0 0 0 0 0 0 0 0 0 0 0 0 0 0 127 0" result="hardAlpha"/>
<feOffset dy="1"/>
<feGaussianBlur stdDeviation="8"/>
<feComposite in2="hardAlpha" operator="out"/>
<feColorMatrix type="matrix" values="0 0 0 0 1 0 0 0 0 1 0 0 0 0 1 0 0 0 0.28 0"/>
<feBlend mode="normal" in2="BackgroundImageFix" result="effect1_dropShadow_1_97"/>
<feBlend mode="normal" in="SourceGraphic" in2="effect1_dropShadow_1_97" result="shape"/>
</filter>
<filter id="filter7_d_1_97" x="14.3779" y="137.278" width="44.3867" height="34.5975" filterUnits="userSpaceOnUse" color-interpolation-filters="sRGB">
<feFlood flood-opacity="0" result="BackgroundImageFix"/>
<feColorMatrix in="SourceAlpha" type="matrix" values="0 0 0 0 0 0 0 0 0 0 0 0 0 0 0 0 0 0 127 0" result="hardAlpha"/>
<feOffset dy="1"/>
<feGaussianBlur stdDeviation="8"/>
<feComposite in2="hardAlpha" operator="out"/>
<feColorMatrix type="matrix" values="0 0 0 0 1 0 0 0 0 1 0 0 0 0 1 0 0 0 0.28 0"/>
<feBlend mode="normal" in2="BackgroundImageFix" result="effect1_dropShadow_1_97"/>
<feBlend mode="normal" in="SourceGraphic" in2="effect1_dropShadow_1_97" result="shape"/>
</filter>
<filter id="filter8_d_1_97" x="16.6987" y="120.196" width="44.439" height="37.3146" filterUnits="userSpaceOnUse" color-interpolation-filters="sRGB">
<feFlood flood-opacity="0" result="BackgroundImageFix"/>
<feColorMatrix in="SourceAlpha" type="matrix" values="0 0 0 0 0 0 0 0 0 0 0 0 0 0 0 0 0 0 127 0" result="hardAlpha"/>
<feOffset dy="1"/>
<feGaussianBlur stdDeviation="8"/>
<feComposite in2="hardAlpha" operator="out"/>
<feColorMatrix type="matrix" values="0 0 0 0 1 0 0 0 0 1 0 0 0 0 1 0 0 0 0.28 0"/>
<feBlend mode="normal" in2="BackgroundImageFix" result="effect1_dropShadow_1_97"/>
<feBlend mode="normal" in="SourceGraphic" in2="effect1_dropShadow_1_97" result="shape"/>
</filter>
<filter id="filter9_d_1_97" x="21.3872" y="104.777" width="43.8623" height="37.942" filterUnits="userSpaceOnUse" color-interpolation-filters="sRGB">
<feFlood flood-opacity="0" result="BackgroundImageFix"/>
<feColorMatrix in="SourceAlpha" type="matrix" values="0 0 0 0 0 0 0 0 0 0 0 0 0 0 0 0 0 0 127 0" result="hardAlpha"/>
<feOffset dy="1"/>
<feGaussianBlur stdDeviation="8"/>
<feComposite in2="hardAlpha" operator="out"/>
<feColorMatrix type="matrix" values="0 0 0 0 1 0 0 0 0 1 0 0 0 0 1 0 0 0 0.28 0"/>
<feBlend mode="normal" in2="BackgroundImageFix" result="effect1_dropShadow_1_97"/>
<feBlend mode="normal" in="SourceGraphic" in2="effect1_dropShadow_1_97" result="shape"/>
</filter>
<filter id="filter10_d_1_97" x="27.8311" y="89.3572" width="43.2964" height="39.1855" filterUnits="userSpaceOnUse" color-interpolation-filters="sRGB">
<feFlood flood-opacity="0" result="BackgroundImageFix"/>
<feColorMatrix in="SourceAlpha" type="matrix" values="0 0 0 0 0 0 0 0 0 0 0 0 0 0 0 0 0 0 127 0" result="hardAlpha"/>
<feOffset dy="1"/>
<feGaussianBlur stdDeviation="8"/>
<feComposite in2="hardAlpha" operator="out"/>
<feColorMatrix type="matrix" values="0 0 0 0 1 0 0 0 0 1 0 0 0 0 1 0 0 0 0.28 0"/>
<feBlend mode="normal" in2="BackgroundImageFix" result="effect1_dropShadow_1_97"/>
<feBlend mode="normal" in="SourceGraphic" in2="effect1_dropShadow_1_97" result="shape"/>
</filter>
<filter id="filter11_d_1_97" x="35.3623" y="74.738" width="62.8491" height="50.5435" filterUnits="userSpaceOnUse" color-interpolation-filters="sRGB">
<feFlood flood-opacity="0" result="BackgroundImageFix"/>
<feColorMatrix in="SourceAlpha" type="matrix" values="0 0 0 0 0 0 0 0 0 0 0 0 0 0 0 0 0 0 127 0" result="hardAlpha"/>
<feOffset dy="1"/>
<feGaussianBlur stdDeviation="8"/>
<feComposite in2="hardAlpha" operator="out"/>
<feColorMatrix type="matrix" values="0 0 0 0 1 0 0 0 0 1 0 0 0 0 1 0 0 0 0.28 0"/>
<feBlend mode="normal" in2="BackgroundImageFix" result="effect1_dropShadow_1_97"/>
<feBlend mode="normal" in="SourceGraphic" in2="effect1_dropShadow_1_97" result="shape"/>
</filter>
</defs>
</svg>
