<svg width="358" height="448" viewBox="0 0 358 448" fill="none" xmlns="http://www.w3.org/2000/svg">
<path d="M123.973 385.444L47 448H28L109 382.847L19.1397 342.806L0 362.87V342.806L11 333.776L0 330.766V319.731L19.1397 326.919V303.856L0 295.653V285.12L14.3548 288.13L79.1689 263.048L0 240.476V229.44L85.2588 194.829L0 167.742V157.709L101.354 189.813L165.733 164.23L0 113.567V93.5033L73.079 66.4155L0 43.3412V30.8014L92.6537 59.3928L217.497 5.72067C224.022 4.2149 237.942 -3.8101 260.561 2.20939L338.425 26.2869L358 19.7659V30.8014L205.317 93.5033C210.102 96.3457 224.37 103.134 243.162 107.548L358 63.4064V74.4419L327 88.9881L358 93.5033V105.04C346.255 104.204 316.332 100.024 304.5 100.024C270.86 113.902 198.46 137.248 191.5 141.261L180 197.337C231.329 197.839 342.688 199.645 358 202.855V213.389C313.196 214.058 213.06 213.79 180 207.37C174.49 224.926 166.429 262.848 169.213 274.085H358V285.12C304.061 284.618 185.616 281.508 171 285.12C150 298.667 121 317.694 134.5 336.144L202.272 371.899C208.072 371.063 222.804 369.391 235.332 369.391C259.401 370.896 317.633 378.019 358 394.472V405.508C321.896 392.633 243.684 370.596 219.672 385.444C230.692 390.125 256.124 400.693 269.696 405.508C286.661 408.852 328.072 415.541 358 415.541V425.573C329.29 425.573 264.563 421.56 235.332 405.508L196.182 385.444H123.973Z" fill="#2B2B2B"/>
<path d="M220.542 16.043L108.313 66.096L188.627 89.4911L326.68 32.8243C297.738 20.5207 234.462 9.23317 220.542 16.043Z" fill="#1E1E1E"/>
<path d="M87.9286 73.8011L9 104.956L176.637 153.369C176.637 142.972 176.637 132.575 191.851 126.563L230.5 113.585L87.9286 73.8011Z" fill="#1E1E1E"/>
<path d="M174 170.666L112 195.459C116.495 199.305 145.924 200.275 167.5 195.459L174 170.666Z" fill="#1E1E1E"/>
<path d="M100.919 200.349L16.5303 233.455L96.5692 255.526L163 230.63L170 206.414C153.5 210.45 112.5 212.756 100.919 200.349Z" fill="#1E1E1E"/>
<path d="M96.569 269.57L31.7549 296.155L111.359 319.731L148.768 281.608L96.569 269.57Z" fill="#1E1E1E"/>
<path d="M30.0146 305.687V335.568L58.7242 348.325C77 358.054 122.494 382.033 177.478 372.402C155.728 364.042 123.416 349.829 117.5 333.778L30.0146 305.687Z" fill="#1E1E1E"/>
<path d="M160.5 204.249L115 218.219L154 225.927L160.5 204.249Z" fill="#1E1E1E"/>
<ellipse cx="160.5" cy="262.5" rx="45.5" ry="34.5" fill="#CFF80B" fill-opacity="0.12"/>
<ellipse cx="160" cy="262.5" rx="35" ry="26.5" fill="#CFF80B"/>
<path d="M161.328 249.449L147.188 265.378C146.065 266.643 147.064 268.631 148.75 268.483L159.344 267.558C159.769 267.52 160.194 267.629 160.548 267.867L168.451 273.159C169.926 274.146 171.819 272.717 171.272 271.028L164.507 250.115C164.062 248.738 162.289 248.366 161.328 249.449Z" fill="black"/>
<path d="M239.648 143.084C239.088 143.084 238.584 142.988 238.136 142.796C237.688 142.596 237.336 142.316 237.08 141.956C236.824 141.596 236.696 141.176 236.696 140.696H238.16C238.192 141.056 238.332 141.352 238.58 141.584C238.836 141.816 239.192 141.932 239.648 141.932C240.12 141.932 240.488 141.82 240.752 141.596C241.016 141.364 241.148 141.068 241.148 140.708C241.148 140.428 241.064 140.2 240.896 140.024C240.736 139.848 240.532 139.712 240.284 139.616C240.044 139.52 239.708 139.416 239.276 139.304C238.732 139.16 238.288 139.016 237.944 138.872C237.608 138.72 237.32 138.488 237.08 138.176C236.84 137.864 236.72 137.448 236.72 136.928C236.72 136.448 236.84 136.028 237.08 135.668C237.32 135.308 237.656 135.032 238.088 134.84C238.52 134.648 239.02 134.552 239.588 134.552C240.396 134.552 241.056 134.756 241.568 135.164C242.088 135.564 242.376 136.116 242.432 136.82H240.92C240.896 136.516 240.752 136.256 240.488 136.04C240.224 135.824 239.876 135.716 239.444 135.716C239.052 135.716 238.732 135.816 238.484 136.016C238.236 136.216 238.112 136.504 238.112 136.88C238.112 137.136 238.188 137.348 238.34 137.516C238.5 137.676 238.7 137.804 238.94 137.9C239.18 137.996 239.508 138.1 239.924 138.212C240.476 138.364 240.924 138.516 241.268 138.668C241.62 138.82 241.916 139.056 242.156 139.376C242.404 139.688 242.528 140.108 242.528 140.636C242.528 141.06 242.412 141.46 242.18 141.836C241.956 142.212 241.624 142.516 241.184 142.748C240.752 142.972 240.24 143.084 239.648 143.084ZM245.738 137.504V141.164C245.738 141.412 245.794 141.592 245.906 141.704C246.026 141.808 246.226 141.86 246.506 141.86H247.346V143H246.266C245.65 143 245.178 142.856 244.85 142.568C244.522 142.28 244.358 141.812 244.358 141.164V137.504H243.578V136.388H244.358V134.744H245.738V136.388H247.346V137.504H245.738ZM256.272 134.66V140.672C256.272 141.416 256.044 142.004 255.588 142.436C255.14 142.868 254.548 143.084 253.812 143.084C253.076 143.084 252.48 142.868 252.024 142.436C251.576 142.004 251.352 141.416 251.352 140.672H252.732C252.74 141.04 252.832 141.332 253.008 141.548C253.192 141.764 253.46 141.872 253.812 141.872C254.164 141.872 254.432 141.764 254.616 141.548C254.8 141.324 254.892 141.032 254.892 140.672V134.66H256.272ZM261.366 143.108C260.742 143.108 260.178 142.968 259.674 142.688C259.17 142.4 258.774 142 258.486 141.488C258.198 140.968 258.054 140.368 258.054 139.688C258.054 139.016 258.202 138.42 258.498 137.9C258.794 137.38 259.198 136.98 259.71 136.7C260.222 136.42 260.794 136.28 261.426 136.28C262.058 136.28 262.63 136.42 263.142 136.7C263.654 136.98 264.058 137.38 264.354 137.9C264.65 138.42 264.798 139.016 264.798 139.688C264.798 140.36 264.646 140.956 264.342 141.476C264.038 141.996 263.622 142.4 263.094 142.688C262.574 142.968 261.998 143.108 261.366 143.108ZM261.366 141.92C261.718 141.92 262.046 141.836 262.35 141.668C262.662 141.5 262.914 141.248 263.106 140.912C263.298 140.576 263.394 140.168 263.394 139.688C263.394 139.208 263.302 138.804 263.118 138.476C262.934 138.14 262.69 137.888 262.386 137.72C262.082 137.552 261.754 137.468 261.402 137.468C261.05 137.468 260.722 137.552 260.418 137.72C260.122 137.888 259.886 138.14 259.71 138.476C259.534 138.804 259.446 139.208 259.446 139.688C259.446 140.4 259.626 140.952 259.986 141.344C260.354 141.728 260.814 141.92 261.366 141.92ZM268.55 143.108C268.03 143.108 267.562 143.016 267.146 142.832C266.738 142.64 266.414 142.384 266.174 142.064C265.934 141.736 265.806 141.372 265.79 140.972H267.206C267.23 141.252 267.362 141.488 267.602 141.68C267.85 141.864 268.158 141.956 268.526 141.956C268.91 141.956 269.206 141.884 269.414 141.74C269.63 141.588 269.738 141.396 269.738 141.164C269.738 140.916 269.618 140.732 269.378 140.612C269.146 140.492 268.774 140.36 268.262 140.216C267.766 140.08 267.362 139.948 267.05 139.82C266.738 139.692 266.466 139.496 266.234 139.232C266.01 138.968 265.898 138.62 265.898 138.188C265.898 137.836 266.002 137.516 266.21 137.228C266.418 136.932 266.714 136.7 267.098 136.532C267.49 136.364 267.938 136.28 268.442 136.28C269.194 136.28 269.798 136.472 270.254 136.856C270.718 137.232 270.966 137.748 270.998 138.404H269.63C269.606 138.108 269.486 137.872 269.27 137.696C269.054 137.52 268.762 137.432 268.394 137.432C268.034 137.432 267.758 137.5 267.566 137.636C267.374 137.772 267.278 137.952 267.278 138.176C267.278 138.352 267.342 138.5 267.47 138.62C267.598 138.74 267.754 138.836 267.938 138.908C268.122 138.972 268.394 139.056 268.754 139.16C269.234 139.288 269.626 139.42 269.93 139.556C270.242 139.684 270.51 139.876 270.734 140.132C270.958 140.388 271.074 140.728 271.082 141.152C271.082 141.528 270.978 141.864 270.77 142.16C270.562 142.456 270.266 142.688 269.882 142.856C269.506 143.024 269.062 143.108 268.55 143.108ZM278.62 139.532C278.62 139.78 278.604 140.004 278.572 140.204H273.52C273.56 140.732 273.756 141.156 274.108 141.476C274.46 141.796 274.892 141.956 275.404 141.956C276.14 141.956 276.66 141.648 276.964 141.032H278.44C278.24 141.64 277.876 142.14 277.348 142.532C276.828 142.916 276.18 143.108 275.404 143.108C274.772 143.108 274.204 142.968 273.7 142.688C273.204 142.4 272.812 142 272.524 141.488C272.244 140.968 272.104 140.368 272.104 139.688C272.104 139.008 272.24 138.412 272.512 137.9C272.792 137.38 273.18 136.98 273.676 136.7C274.18 136.42 274.756 136.28 275.404 136.28C276.028 136.28 276.584 136.416 277.072 136.688C277.56 136.96 277.94 137.344 278.212 137.84C278.484 138.328 278.62 138.892 278.62 139.532ZM277.192 139.1C277.184 138.596 277.004 138.192 276.652 137.888C276.3 137.584 275.864 137.432 275.344 137.432C274.872 137.432 274.468 137.584 274.132 137.888C273.796 138.184 273.596 138.588 273.532 139.1H277.192ZM281.334 137.36C281.566 137.056 281.882 136.8 282.282 136.592C282.682 136.384 283.134 136.28 283.638 136.28C284.214 136.28 284.738 136.424 285.21 136.712C285.69 136.992 286.066 137.388 286.338 137.9C286.61 138.412 286.746 139 286.746 139.664C286.746 140.328 286.61 140.924 286.338 141.452C286.066 141.972 285.69 142.38 285.21 142.676C284.738 142.964 284.214 143.108 283.638 143.108C283.134 143.108 282.686 143.008 282.294 142.808C281.902 142.6 281.582 142.344 281.334 142.04V146.144H279.966V136.388H281.334V137.36ZM285.354 139.664C285.354 139.208 285.258 138.816 285.066 138.488C284.882 138.152 284.634 137.9 284.322 137.732C284.018 137.556 283.69 137.468 283.338 137.468C282.994 137.468 282.666 137.556 282.354 137.732C282.05 137.908 281.802 138.164 281.61 138.5C281.426 138.836 281.334 139.232 281.334 139.688C281.334 140.144 281.426 140.544 281.61 140.888C281.802 141.224 282.05 141.48 282.354 141.656C282.666 141.832 282.994 141.92 283.338 141.92C283.69 141.92 284.018 141.832 284.322 141.656C284.634 141.472 284.882 141.208 285.066 140.864C285.258 140.52 285.354 140.12 285.354 139.664ZM291.519 136.28C292.023 136.28 292.471 136.388 292.863 136.604C293.263 136.82 293.575 137.14 293.799 137.564C294.031 137.988 294.147 138.5 294.147 139.1V143H292.791V139.304C292.791 138.712 292.643 138.26 292.347 137.948C292.051 137.628 291.647 137.468 291.135 137.468C290.623 137.468 290.215 137.628 289.911 137.948C289.615 138.26 289.467 138.712 289.467 139.304V143H288.099V134.12H289.467V137.156C289.699 136.876 289.991 136.66 290.343 136.508C290.703 136.356 291.095 136.28 291.519 136.28ZM303.605 143L300.377 139.268V143H299.009V134.66H300.377V138.464L303.617 134.66H305.333L301.709 138.836L305.393 143H303.605ZM310.023 136.28C310.527 136.28 310.975 136.388 311.367 136.604C311.767 136.82 312.079 137.14 312.303 137.564C312.535 137.988 312.651 138.5 312.651 139.1V143H311.295V139.304C311.295 138.712 311.147 138.26 310.851 137.948C310.555 137.628 310.151 137.468 309.639 137.468C309.127 137.468 308.719 137.628 308.415 137.948C308.119 138.26 307.971 138.712 307.971 139.304V143H306.603V134.12H307.971V137.156C308.203 136.876 308.495 136.66 308.847 136.508C309.207 136.356 309.599 136.28 310.023 136.28ZM317.264 143.108C316.64 143.108 316.076 142.968 315.572 142.688C315.068 142.4 314.672 142 314.384 141.488C314.096 140.968 313.952 140.368 313.952 139.688C313.952 139.016 314.1 138.42 314.396 137.9C314.692 137.38 315.096 136.98 315.608 136.7C316.12 136.42 316.692 136.28 317.324 136.28C317.956 136.28 318.528 136.42 319.04 136.7C319.552 136.98 319.956 137.38 320.252 137.9C320.548 138.42 320.696 139.016 320.696 139.688C320.696 140.36 320.544 140.956 320.24 141.476C319.936 141.996 319.52 142.4 318.992 142.688C318.472 142.968 317.896 143.108 317.264 143.108ZM317.264 141.92C317.616 141.92 317.944 141.836 318.248 141.668C318.56 141.5 318.812 141.248 319.004 140.912C319.196 140.576 319.292 140.168 319.292 139.688C319.292 139.208 319.2 138.804 319.016 138.476C318.832 138.14 318.588 137.888 318.284 137.72C317.98 137.552 317.652 137.468 317.3 137.468C316.948 137.468 316.62 137.552 316.316 137.72C316.02 137.888 315.784 138.14 315.608 138.476C315.432 138.804 315.344 139.208 315.344 139.688C315.344 140.4 315.524 140.952 315.884 141.344C316.252 141.728 316.712 141.92 317.264 141.92ZM323.416 137.348C323.616 137.012 323.88 136.752 324.208 136.568C324.544 136.376 324.94 136.28 325.396 136.28V137.696H325.048C324.512 137.696 324.104 137.832 323.824 138.104C323.552 138.376 323.416 138.848 323.416 139.52V143H322.048V136.388H323.416V137.348ZM326.198 139.664C326.198 139 326.334 138.412 326.606 137.9C326.886 137.388 327.262 136.992 327.734 136.712C328.214 136.424 328.742 136.28 329.318 136.28C329.838 136.28 330.29 136.384 330.674 136.592C331.066 136.792 331.378 137.044 331.61 137.348V136.388H332.99V143H331.61V142.016C331.378 142.328 331.062 142.588 330.662 142.796C330.262 143.004 329.806 143.108 329.294 143.108C328.726 143.108 328.206 142.964 327.734 142.676C327.262 142.38 326.886 141.972 326.606 141.452C326.334 140.924 326.198 140.328 326.198 139.664ZM331.61 139.688C331.61 139.232 331.514 138.836 331.322 138.5C331.138 138.164 330.894 137.908 330.59 137.732C330.286 137.556 329.958 137.468 329.606 137.468C329.254 137.468 328.926 137.556 328.622 137.732C328.318 137.9 328.07 138.152 327.878 138.488C327.694 138.816 327.602 139.208 327.602 139.664C327.602 140.12 327.694 140.52 327.878 140.864C328.07 141.208 328.318 141.472 328.622 141.656C328.934 141.832 329.262 141.92 329.606 141.92C329.958 141.92 330.286 141.832 330.59 141.656C330.894 141.48 331.138 141.224 331.322 140.888C331.514 140.544 331.61 140.144 331.61 139.688ZM336.155 137.372C336.387 137.052 336.703 136.792 337.103 136.592C337.511 136.384 337.963 136.28 338.459 136.28C339.043 136.28 339.571 136.42 340.043 136.7C340.515 136.98 340.887 137.38 341.159 137.9C341.431 138.412 341.567 139 341.567 139.664C341.567 140.328 341.431 140.924 341.159 141.452C340.887 141.972 340.511 142.38 340.031 142.676C339.559 142.964 339.035 143.108 338.459 143.108C337.947 143.108 337.491 143.008 337.091 142.808C336.699 142.608 336.387 142.352 336.155 142.04V143H334.787V134.12H336.155V137.372ZM340.175 139.664C340.175 139.208 340.079 138.816 339.887 138.488C339.703 138.152 339.455 137.9 339.143 137.732C338.839 137.556 338.511 137.468 338.159 137.468C337.815 137.468 337.487 137.556 337.175 137.732C336.871 137.908 336.623 138.164 336.431 138.5C336.247 138.836 336.155 139.232 336.155 139.688C336.155 140.144 336.247 140.544 336.431 140.888C336.623 141.224 336.871 141.48 337.175 141.656C337.487 141.832 337.815 141.92 338.159 141.92C338.511 141.92 338.839 141.832 339.143 141.656C339.455 141.472 339.703 141.208 339.887 140.864C340.079 140.52 340.175 140.12 340.175 139.664ZM342.464 139.664C342.464 139 342.6 138.412 342.872 137.9C343.152 137.388 343.528 136.992 344 136.712C344.48 136.424 345.008 136.28 345.584 136.28C346.104 136.28 346.556 136.384 346.94 136.592C347.332 136.792 347.644 137.044 347.876 137.348V136.388H349.256V143H347.876V142.016C347.644 142.328 347.328 142.588 346.928 142.796C346.528 143.004 346.072 143.108 345.56 143.108C344.992 143.108 344.472 142.964 344 142.676C343.528 142.38 343.152 141.972 342.872 141.452C342.6 140.924 342.464 140.328 342.464 139.664ZM347.876 139.688C347.876 139.232 347.78 138.836 347.588 138.5C347.404 138.164 347.16 137.908 346.856 137.732C346.552 137.556 346.224 137.468 345.872 137.468C345.52 137.468 345.192 137.556 344.888 137.732C344.584 137.9 344.336 138.152 344.144 138.488C343.96 138.816 343.868 139.208 343.868 139.664C343.868 140.12 343.96 140.52 344.144 140.864C344.336 141.208 344.584 141.472 344.888 141.656C345.2 141.832 345.528 141.92 345.872 141.92C346.224 141.92 346.552 141.832 346.856 141.656C347.16 141.48 347.404 141.224 347.588 140.888C347.78 140.544 347.876 140.144 347.876 139.688ZM352.42 137.348C352.62 137.012 352.884 136.752 353.212 136.568C353.548 136.376 353.944 136.28 354.4 136.28V137.696H354.052C353.516 137.696 353.108 137.832 352.828 138.104C352.556 138.376 352.42 138.848 352.42 139.52V143H351.052V136.388H352.42V137.348Z" fill="#87888C"/>
<path d="M72.684 90.66V99H71.316V93.288L68.772 99H67.824L65.268 93.288V99H63.9V90.66H65.376L68.304 97.2L71.22 90.66H72.684ZM80.518 93.06C80.302 92.644 80.002 92.332 79.618 92.124C79.234 91.908 78.79 91.8 78.286 91.8C77.734 91.8 77.242 91.924 76.81 92.172C76.378 92.42 76.038 92.772 75.79 93.228C75.55 93.684 75.43 94.212 75.43 94.812C75.43 95.412 75.55 95.944 75.79 96.408C76.038 96.864 76.378 97.216 76.81 97.464C77.242 97.712 77.734 97.836 78.286 97.836C79.03 97.836 79.634 97.628 80.098 97.212C80.562 96.796 80.846 96.232 80.95 95.52H77.818V94.428H82.414V95.496C82.326 96.144 82.094 96.74 81.718 97.284C81.35 97.828 80.866 98.264 80.266 98.592C79.674 98.912 79.014 99.072 78.286 99.072C77.502 99.072 76.786 98.892 76.138 98.532C75.49 98.164 74.974 97.656 74.59 97.008C74.214 96.36 74.026 95.628 74.026 94.812C74.026 93.996 74.214 93.264 74.59 92.616C74.974 91.968 75.49 91.464 76.138 91.104C76.794 90.736 77.51 90.552 78.286 90.552C79.174 90.552 79.962 90.772 80.65 91.212C81.346 91.644 81.85 92.26 82.162 93.06H80.518ZM91.2125 99L89.2925 95.664H88.2485V99H86.8805V90.66H89.7605C90.4005 90.66 90.9405 90.772 91.3805 90.996C91.8285 91.22 92.1605 91.52 92.3765 91.896C92.6005 92.272 92.7125 92.692 92.7125 93.156C92.7125 93.7 92.5525 94.196 92.2325 94.644C91.9205 95.084 91.4365 95.384 90.7805 95.544L92.8445 99H91.2125ZM88.2485 94.572H89.7605C90.2725 94.572 90.6565 94.444 90.9125 94.188C91.1765 93.932 91.3085 93.588 91.3085 93.156C91.3085 92.724 91.1805 92.388 90.9245 92.148C90.6685 91.9 90.2805 91.776 89.7605 91.776H88.2485V94.572ZM97.3305 99.108C96.7065 99.108 96.1425 98.968 95.6385 98.688C95.1345 98.4 94.7385 98 94.4505 97.488C94.1625 96.968 94.0185 96.368 94.0185 95.688C94.0185 95.016 94.1665 94.42 94.4625 93.9C94.7585 93.38 95.1625 92.98 95.6745 92.7C96.1865 92.42 96.7585 92.28 97.3905 92.28C98.0225 92.28 98.5945 92.42 99.1065 92.7C99.6185 92.98 100.023 93.38 100.319 93.9C100.615 94.42 100.763 95.016 100.763 95.688C100.763 96.36 100.611 96.956 100.307 97.476C100.003 97.996 99.5865 98.4 99.0585 98.688C98.5385 98.968 97.9625 99.108 97.3305 99.108ZM97.3305 97.92C97.6825 97.92 98.0105 97.836 98.3145 97.668C98.6265 97.5 98.8785 97.248 99.0705 96.912C99.2625 96.576 99.3585 96.168 99.3585 95.688C99.3585 95.208 99.2665 94.804 99.0825 94.476C98.8985 94.14 98.6545 93.888 98.3505 93.72C98.0465 93.552 97.7185 93.468 97.3665 93.468C97.0145 93.468 96.6865 93.552 96.3825 93.72C96.0865 93.888 95.8505 94.14 95.6745 94.476C95.4985 94.804 95.4105 95.208 95.4105 95.688C95.4105 96.4 95.5905 96.952 95.9505 97.344C96.3185 97.728 96.7785 97.92 97.3305 97.92ZM101.659 95.664C101.659 95 101.795 94.412 102.067 93.9C102.347 93.388 102.723 92.992 103.195 92.712C103.675 92.424 104.203 92.28 104.779 92.28C105.299 92.28 105.751 92.384 106.135 92.592C106.527 92.792 106.839 93.044 107.071 93.348V92.388H108.451V99H107.071V98.016C106.839 98.328 106.523 98.588 106.123 98.796C105.723 99.004 105.267 99.108 104.755 99.108C104.187 99.108 103.667 98.964 103.195 98.676C102.723 98.38 102.347 97.972 102.067 97.452C101.795 96.924 101.659 96.328 101.659 95.664ZM107.071 95.688C107.071 95.232 106.975 94.836 106.783 94.5C106.599 94.164 106.355 93.908 106.051 93.732C105.747 93.556 105.419 93.468 105.067 93.468C104.715 93.468 104.387 93.556 104.083 93.732C103.779 93.9 103.531 94.152 103.339 94.488C103.155 94.816 103.063 95.208 103.063 95.664C103.063 96.12 103.155 96.52 103.339 96.864C103.531 97.208 103.779 97.472 104.083 97.656C104.395 97.832 104.723 97.92 105.067 97.92C105.419 97.92 105.747 97.832 106.051 97.656C106.355 97.48 106.599 97.224 106.783 96.888C106.975 96.544 107.071 96.144 107.071 95.688ZM109.792 95.664C109.792 95 109.928 94.412 110.2 93.9C110.48 93.388 110.856 92.992 111.328 92.712C111.808 92.424 112.34 92.28 112.924 92.28C113.356 92.28 113.78 92.376 114.196 92.568C114.62 92.752 114.956 93 115.204 93.312V90.12H116.584V99H115.204V98.004C114.98 98.324 114.668 98.588 114.268 98.796C113.876 99.004 113.424 99.108 112.912 99.108C112.336 99.108 111.808 98.964 111.328 98.676C110.856 98.38 110.48 97.972 110.2 97.452C109.928 96.924 109.792 96.328 109.792 95.664ZM115.204 95.688C115.204 95.232 115.108 94.836 114.916 94.5C114.732 94.164 114.488 93.908 114.184 93.732C113.88 93.556 113.552 93.468 113.2 93.468C112.848 93.468 112.52 93.556 112.216 93.732C111.912 93.9 111.664 94.152 111.472 94.488C111.288 94.816 111.196 95.208 111.196 95.664C111.196 96.12 111.288 96.52 111.472 96.864C111.664 97.208 111.912 97.472 112.216 97.656C112.528 97.832 112.856 97.92 113.2 97.92C113.552 97.92 113.88 97.832 114.184 97.656C114.488 97.48 114.732 97.224 114.916 96.888C115.108 96.544 115.204 96.144 115.204 95.688Z" fill="#87888C"/>
<path d="M226.268 292.66V301H224.9V292.66H226.268ZM231.4 294.28C231.92 294.28 232.384 294.388 232.792 294.604C233.208 294.82 233.532 295.14 233.764 295.564C233.996 295.988 234.112 296.5 234.112 297.1V301H232.756V297.304C232.756 296.712 232.608 296.26 232.312 295.948C232.016 295.628 231.612 295.468 231.1 295.468C230.588 295.468 230.18 295.628 229.876 295.948C229.58 296.26 229.432 296.712 229.432 297.304V301H228.064V294.388H229.432V295.144C229.656 294.872 229.94 294.66 230.284 294.508C230.636 294.356 231.008 294.28 231.4 294.28ZM238.629 295.504H237.405V301H236.025V295.504H235.245V294.388H236.025V293.92C236.025 293.16 236.225 292.608 236.625 292.264C237.033 291.912 237.669 291.736 238.533 291.736V292.876C238.117 292.876 237.825 292.956 237.657 293.116C237.489 293.268 237.405 293.536 237.405 293.92V294.388H238.629V295.504ZM239.385 297.664C239.385 297 239.521 296.412 239.793 295.9C240.073 295.388 240.449 294.992 240.921 294.712C241.401 294.424 241.929 294.28 242.505 294.28C243.025 294.28 243.477 294.384 243.861 294.592C244.253 294.792 244.565 295.044 244.797 295.348V294.388H246.177V301H244.797V300.016C244.565 300.328 244.249 300.588 243.849 300.796C243.449 301.004 242.993 301.108 242.481 301.108C241.913 301.108 241.393 300.964 240.921 300.676C240.449 300.38 240.073 299.972 239.793 299.452C239.521 298.924 239.385 298.328 239.385 297.664ZM244.797 297.688C244.797 297.232 244.701 296.836 244.509 296.5C244.325 296.164 244.081 295.908 243.777 295.732C243.473 295.556 243.145 295.468 242.793 295.468C242.441 295.468 242.113 295.556 241.809 295.732C241.505 295.9 241.257 296.152 241.065 296.488C240.881 296.816 240.789 297.208 240.789 297.664C240.789 298.12 240.881 298.52 241.065 298.864C241.257 299.208 241.505 299.472 241.809 299.656C242.121 299.832 242.449 299.92 242.793 299.92C243.145 299.92 243.473 299.832 243.777 299.656C244.081 299.48 244.325 299.224 244.509 298.888C244.701 298.544 244.797 298.144 244.797 297.688ZM251.31 294.28C251.83 294.28 252.294 294.388 252.702 294.604C253.118 294.82 253.442 295.14 253.674 295.564C253.906 295.988 254.022 296.5 254.022 297.1V301H252.666V297.304C252.666 296.712 252.518 296.26 252.222 295.948C251.926 295.628 251.522 295.468 251.01 295.468C250.498 295.468 250.09 295.628 249.786 295.948C249.49 296.26 249.342 296.712 249.342 297.304V301H247.974V294.388H249.342V295.144C249.566 294.872 249.85 294.66 250.194 294.508C250.546 294.356 250.918 294.28 251.31 294.28ZM257.363 295.504V299.164C257.363 299.412 257.419 299.592 257.531 299.704C257.651 299.808 257.851 299.86 258.131 299.86H258.971V301H257.891C257.275 301 256.803 300.856 256.475 300.568C256.147 300.28 255.983 299.812 255.983 299.164V295.504H255.203V294.388H255.983V292.744H257.363V294.388H258.971V295.504H257.363ZM267.897 292.66V298.672C267.897 299.416 267.669 300.004 267.213 300.436C266.765 300.868 266.173 301.084 265.437 301.084C264.701 301.084 264.105 300.868 263.649 300.436C263.201 300.004 262.977 299.416 262.977 298.672H264.357C264.365 299.04 264.457 299.332 264.633 299.548C264.817 299.764 265.085 299.872 265.437 299.872C265.789 299.872 266.057 299.764 266.241 299.548C266.425 299.324 266.517 299.032 266.517 298.672V292.66H267.897ZM276.183 297.532C276.183 297.78 276.167 298.004 276.135 298.204H271.083C271.123 298.732 271.319 299.156 271.671 299.476C272.023 299.796 272.455 299.956 272.967 299.956C273.703 299.956 274.223 299.648 274.527 299.032H276.003C275.803 299.64 275.439 300.14 274.911 300.532C274.391 300.916 273.743 301.108 272.967 301.108C272.335 301.108 271.767 300.968 271.263 300.688C270.767 300.4 270.375 300 270.087 299.488C269.807 298.968 269.667 298.368 269.667 297.688C269.667 297.008 269.803 296.412 270.075 295.9C270.355 295.38 270.743 294.98 271.239 294.7C271.743 294.42 272.319 294.28 272.967 294.28C273.591 294.28 274.147 294.416 274.635 294.688C275.123 294.96 275.503 295.344 275.775 295.84C276.047 296.328 276.183 296.892 276.183 297.532ZM274.755 297.1C274.747 296.596 274.567 296.192 274.215 295.888C273.863 295.584 273.427 295.432 272.907 295.432C272.435 295.432 272.031 295.584 271.695 295.888C271.359 296.184 271.159 296.588 271.095 297.1H274.755ZM279.929 301.108C279.409 301.108 278.941 301.016 278.525 300.832C278.117 300.64 277.793 300.384 277.553 300.064C277.313 299.736 277.185 299.372 277.169 298.972H278.585C278.609 299.252 278.741 299.488 278.981 299.68C279.229 299.864 279.537 299.956 279.905 299.956C280.289 299.956 280.585 299.884 280.793 299.74C281.009 299.588 281.117 299.396 281.117 299.164C281.117 298.916 280.997 298.732 280.757 298.612C280.525 298.492 280.153 298.36 279.641 298.216C279.145 298.08 278.741 297.948 278.429 297.82C278.117 297.692 277.845 297.496 277.613 297.232C277.389 296.968 277.277 296.62 277.277 296.188C277.277 295.836 277.381 295.516 277.589 295.228C277.797 294.932 278.093 294.7 278.477 294.532C278.869 294.364 279.317 294.28 279.821 294.28C280.573 294.28 281.177 294.472 281.633 294.856C282.097 295.232 282.345 295.748 282.377 296.404H281.009C280.985 296.108 280.865 295.872 280.649 295.696C280.433 295.52 280.141 295.432 279.773 295.432C279.413 295.432 279.137 295.5 278.945 295.636C278.753 295.772 278.657 295.952 278.657 296.176C278.657 296.352 278.721 296.5 278.849 296.62C278.977 296.74 279.133 296.836 279.317 296.908C279.501 296.972 279.773 297.056 280.133 297.16C280.613 297.288 281.005 297.42 281.309 297.556C281.621 297.684 281.889 297.876 282.113 298.132C282.337 298.388 282.453 298.728 282.461 299.152C282.461 299.528 282.357 299.864 282.149 300.16C281.941 300.456 281.645 300.688 281.261 300.856C280.885 301.024 280.441 301.108 279.929 301.108ZM289.927 294.388V301H288.559V300.22C288.343 300.492 288.059 300.708 287.707 300.868C287.363 301.02 286.995 301.096 286.603 301.096C286.083 301.096 285.615 300.988 285.199 300.772C284.791 300.556 284.467 300.236 284.227 299.812C283.995 299.388 283.879 298.876 283.879 298.276V294.388H285.235V298.072C285.235 298.664 285.383 299.12 285.679 299.44C285.975 299.752 286.379 299.908 286.891 299.908C287.403 299.908 287.807 299.752 288.103 299.44C288.407 299.12 288.559 298.664 288.559 298.072V294.388H289.927ZM294.132 301.108C293.612 301.108 293.144 301.016 292.728 300.832C292.32 300.64 291.996 300.384 291.756 300.064C291.516 299.736 291.388 299.372 291.372 298.972H292.788C292.812 299.252 292.944 299.488 293.184 299.68C293.432 299.864 293.74 299.956 294.108 299.956C294.492 299.956 294.788 299.884 294.996 299.74C295.212 299.588 295.32 299.396 295.32 299.164C295.32 298.916 295.2 298.732 294.96 298.612C294.728 298.492 294.356 298.36 293.844 298.216C293.348 298.08 292.944 297.948 292.632 297.82C292.32 297.692 292.048 297.496 291.816 297.232C291.592 296.968 291.48 296.62 291.48 296.188C291.48 295.836 291.584 295.516 291.792 295.228C292 294.932 292.296 294.7 292.68 294.532C293.072 294.364 293.52 294.28 294.024 294.28C294.776 294.28 295.38 294.472 295.836 294.856C296.3 295.232 296.548 295.748 296.58 296.404H295.212C295.188 296.108 295.068 295.872 294.852 295.696C294.636 295.52 294.344 295.432 293.976 295.432C293.616 295.432 293.34 295.5 293.148 295.636C292.956 295.772 292.86 295.952 292.86 296.176C292.86 296.352 292.924 296.5 293.052 296.62C293.18 296.74 293.336 296.836 293.52 296.908C293.704 296.972 293.976 297.056 294.336 297.16C294.816 297.288 295.208 297.42 295.512 297.556C295.824 297.684 296.092 297.876 296.316 298.132C296.54 298.388 296.656 298.728 296.664 299.152C296.664 299.528 296.56 299.864 296.352 300.16C296.144 300.456 295.848 300.688 295.464 300.856C295.088 301.024 294.644 301.108 294.132 301.108ZM300.803 296.812C300.803 295.996 300.991 295.264 301.367 294.616C301.751 293.968 302.267 293.464 302.915 293.104C303.571 292.736 304.287 292.552 305.063 292.552C305.951 292.552 306.739 292.772 307.427 293.212C308.123 293.644 308.627 294.26 308.939 295.06H307.295C307.079 294.62 306.779 294.292 306.395 294.076C306.011 293.86 305.567 293.752 305.063 293.752C304.511 293.752 304.019 293.876 303.587 294.124C303.155 294.372 302.815 294.728 302.567 295.192C302.327 295.656 302.207 296.196 302.207 296.812C302.207 297.428 302.327 297.968 302.567 298.432C302.815 298.896 303.155 299.256 303.587 299.512C304.019 299.76 304.511 299.884 305.063 299.884C305.567 299.884 306.011 299.776 306.395 299.56C306.779 299.344 307.079 299.016 307.295 298.576H308.939C308.627 299.376 308.123 299.992 307.427 300.424C306.739 300.856 305.951 301.072 305.063 301.072C304.279 301.072 303.563 300.892 302.915 300.532C302.267 300.164 301.751 299.656 301.367 299.008C300.991 298.36 300.803 297.628 300.803 296.812ZM313.961 294.28C314.465 294.28 314.913 294.388 315.305 294.604C315.705 294.82 316.017 295.14 316.241 295.564C316.473 295.988 316.589 296.5 316.589 297.1V301H315.233V297.304C315.233 296.712 315.085 296.26 314.789 295.948C314.493 295.628 314.089 295.468 313.577 295.468C313.065 295.468 312.657 295.628 312.353 295.948C312.057 296.26 311.909 296.712 311.909 297.304V301H310.541V292.12H311.909V295.156C312.141 294.876 312.433 294.66 312.785 294.508C313.145 294.356 313.537 294.28 313.961 294.28ZM324.322 294.388V301H322.954V300.22C322.738 300.492 322.454 300.708 322.102 300.868C321.758 301.02 321.39 301.096 320.998 301.096C320.478 301.096 320.01 300.988 319.594 300.772C319.186 300.556 318.862 300.236 318.622 299.812C318.39 299.388 318.274 298.876 318.274 298.276V294.388H319.63V298.072C319.63 298.664 319.778 299.12 320.074 299.44C320.37 299.752 320.774 299.908 321.286 299.908C321.798 299.908 322.202 299.752 322.498 299.44C322.802 299.12 322.954 298.664 322.954 298.072V294.388H324.322ZM327.495 295.348C327.695 295.012 327.959 294.752 328.287 294.568C328.623 294.376 329.019 294.28 329.475 294.28V295.696H329.127C328.591 295.696 328.183 295.832 327.903 296.104C327.631 296.376 327.495 296.848 327.495 297.52V301H326.127V294.388H327.495V295.348ZM330.276 297.688C330.276 297.008 330.412 296.412 330.684 295.9C330.964 295.38 331.348 294.98 331.836 294.7C332.324 294.42 332.884 294.28 333.516 294.28C334.316 294.28 334.976 294.472 335.496 294.856C336.024 295.232 336.38 295.772 336.564 296.476H335.088C334.968 296.148 334.776 295.892 334.512 295.708C334.248 295.524 333.916 295.432 333.516 295.432C332.956 295.432 332.508 295.632 332.172 296.032C331.844 296.424 331.68 296.976 331.68 297.688C331.68 298.4 331.844 298.956 332.172 299.356C332.508 299.756 332.956 299.956 333.516 299.956C334.308 299.956 334.832 299.608 335.088 298.912H336.564C336.372 299.584 336.012 300.12 335.484 300.52C334.956 300.912 334.3 301.108 333.516 301.108C332.884 301.108 332.324 300.968 331.836 300.688C331.348 300.4 330.964 300 330.684 299.488C330.412 298.968 330.276 298.368 330.276 297.688ZM341.347 294.28C341.851 294.28 342.299 294.388 342.691 294.604C343.091 294.82 343.403 295.14 343.627 295.564C343.859 295.988 343.975 296.5 343.975 297.1V301H342.619V297.304C342.619 296.712 342.471 296.26 342.175 295.948C341.879 295.628 341.475 295.468 340.963 295.468C340.451 295.468 340.043 295.628 339.739 295.948C339.443 296.26 339.295 296.712 339.295 297.304V301H337.927V292.12H339.295V295.156C339.527 294.876 339.819 294.66 340.171 294.508C340.531 294.356 340.923 294.28 341.347 294.28Z" fill="#87888C"/>
<path d="M170 239L158 236.5L174 150.5C175.5 143 176 132 196 125L309.5 87L358 90.5V102L306 99.5L190.5 140.5L170 239Z" fill="#CFF80B"/>
<path d="M187.601 154.201L177.337 203.568C176.595 207.137 173.128 209.452 169.547 208.768C165.929 208.078 163.554 204.588 164.237 200.969L173.598 151.422C174.359 147.393 178.351 144.831 182.331 145.819C186.055 146.743 188.382 150.445 187.601 154.201Z" fill="#FF2257"/>
<path d="M304.07 99.6923L248.614 120L242 109.338L308.14 87L358 90.5538V103.246L304.07 99.6923Z" fill="#00FFA4"/>
</svg>
