<svg width="32" height="32" viewBox="0 0 32 32" fill="none" xmlns="http://www.w3.org/2000/svg">
<path d="M30.4952 9.89691C29.7065 8.01438 28.559 6.30329 27.1167 4.85902C25.6788 3.41223 23.9707 2.26194 22.0894 1.47347C20.1622 0.661823 18.0915 0.245773 16.0003 0.250032H15.93C13.803 0.260579 11.7464 0.682454 9.8093 1.51214C7.94415 2.30869 6.25208 3.46102 4.82766 4.90472C3.39936 6.34575 2.26502 8.05086 1.48781 9.92503C0.681028 11.874 0.272228 13.9646 0.285468 16.0739C0.296015 18.5137 0.879608 20.936 1.96945 23.1016V28.4453C1.96945 29.3383 2.69367 30.0625 3.58312 30.0625H8.91984C11.0956 31.1604 13.4965 31.7381 15.9335 31.75H16.0073C18.1097 31.75 20.1452 31.3422 22.0648 30.5442C23.9365 29.7651 25.6383 28.6282 27.0745 27.1973C28.523 25.7594 29.662 24.0789 30.4601 22.2051C31.2862 20.2645 31.7081 18.2008 31.7187 16.0703C31.7257 13.9293 31.3109 11.8516 30.4952 9.89691ZM8.98312 17.6875C8.055 17.6875 7.29914 16.9317 7.29914 16C7.29914 15.0684 8.055 14.3125 8.98312 14.3125C9.91125 14.3125 10.6671 15.0684 10.6671 16C10.6671 16.9317 9.91476 17.6875 8.98312 17.6875ZM16.0003 17.6875C15.0722 17.6875 14.3163 16.9317 14.3163 16C14.3163 15.0684 15.0722 14.3125 16.0003 14.3125C16.9284 14.3125 17.6843 15.0684 17.6843 16C17.6843 16.9317 16.9284 17.6875 16.0003 17.6875ZM23.0175 17.6875C22.0894 17.6875 21.3335 16.9317 21.3335 16C21.3335 15.0684 22.0894 14.3125 23.0175 14.3125C23.9456 14.3125 24.7015 15.0684 24.7015 16C24.7015 16.9317 23.9456 17.6875 23.0175 17.6875Z" fill="white"/>
</svg>
