<svg width="303" height="35" viewBox="0 0 303 35" fill="none" xmlns="http://www.w3.org/2000/svg">
<path d="M3.1582 32L299.999 32" stroke="#87888C" stroke-opacity="0.15" stroke-width="4.65091" stroke-linecap="round"/>
<path d="M4.23779 32H87.3012" stroke="#CFF80B" stroke-width="5.06464" stroke-linecap="round"/>
<path d="M1.682 12.941C1.682 11.6797 1.88733 10.697 2.298 9.993C2.70867 9.28167 3.42733 8.926 4.454 8.926C5.47333 8.926 6.18833 9.28167 6.599 9.993C7.00967 10.697 7.215 11.6797 7.215 12.941C7.215 14.2243 7.00967 15.2217 6.599 15.933C6.18833 16.6443 5.47333 17 4.454 17C3.42733 17 2.70867 16.6443 2.298 15.933C1.88733 15.2217 1.682 14.2243 1.682 12.941ZM6.225 12.941C6.225 12.303 6.181 11.764 6.093 11.324C6.01233 10.8767 5.84 10.5173 5.576 10.246C5.31933 9.97467 4.94533 9.839 4.454 9.839C3.95533 9.839 3.574 9.97467 3.31 10.246C3.05333 10.5173 2.881 10.8767 2.793 11.324C2.71233 11.764 2.672 12.303 2.672 12.941C2.672 13.601 2.71233 14.1547 2.793 14.602C2.881 15.0493 3.05333 15.4087 3.31 15.68C3.574 15.9513 3.95533 16.087 4.454 16.087C4.94533 16.087 5.31933 15.9513 5.576 15.68C5.84 15.4087 6.01233 15.0493 6.093 14.602C6.181 14.1547 6.225 13.601 6.225 12.941ZM9.07323 17.066C8.88256 17.066 8.72123 17 8.58923 16.868C8.45723 16.736 8.39123 16.5747 8.39123 16.384C8.39123 16.1933 8.45723 16.032 8.58923 15.9C8.72123 15.768 8.88256 15.702 9.07323 15.702C9.25656 15.702 9.41056 15.768 9.53523 15.9C9.66723 16.032 9.73323 16.1933 9.73323 16.384C9.73323 16.5747 9.66723 16.736 9.53523 16.868C9.41056 17 9.25656 17.066 9.07323 17.066ZM9.07323 12.358C8.88256 12.358 8.72123 12.292 8.58923 12.16C8.45723 12.028 8.39123 11.8667 8.39123 11.676C8.39123 11.4853 8.45723 11.324 8.58923 11.192C8.72123 11.06 8.88256 10.994 9.07323 10.994C9.25656 10.994 9.41056 11.06 9.53523 11.192C9.66723 11.324 9.73323 11.4853 9.73323 11.676C9.73323 11.8667 9.66723 12.028 9.53523 12.16C9.41056 12.292 9.25656 12.358 9.07323 12.358ZM10.931 12.941C10.931 11.6797 11.1364 10.697 11.547 9.993C11.9577 9.28167 12.6764 8.926 13.703 8.926C14.7224 8.926 15.4374 9.28167 15.848 9.993C16.2587 10.697 16.464 11.6797 16.464 12.941C16.464 14.2243 16.2587 15.2217 15.848 15.933C15.4374 16.6443 14.7224 17 13.703 17C12.6764 17 11.9577 16.6443 11.547 15.933C11.1364 15.2217 10.931 14.2243 10.931 12.941ZM15.474 12.941C15.474 12.303 15.43 11.764 15.342 11.324C15.2614 10.8767 15.089 10.5173 14.825 10.246C14.5684 9.97467 14.1944 9.839 13.703 9.839C13.2044 9.839 12.823 9.97467 12.559 10.246C12.3024 10.5173 12.13 10.8767 12.042 11.324C11.9614 11.764 11.921 12.303 11.921 12.941C11.921 13.601 11.9614 14.1547 12.042 14.602C12.13 15.0493 12.3024 15.4087 12.559 15.68C12.823 15.9513 13.2044 16.087 13.703 16.087C14.1944 16.087 14.5684 15.9513 14.825 15.68C15.089 15.4087 15.2614 15.0493 15.342 14.602C15.43 14.1547 15.474 13.601 15.474 12.941ZM17.8383 12.941C17.8383 11.6797 18.0436 10.697 18.4543 9.993C18.8649 9.28167 19.5836 8.926 20.6103 8.926C21.6296 8.926 22.3446 9.28167 22.7553 9.993C23.1659 10.697 23.3712 11.6797 23.3712 12.941C23.3712 14.2243 23.1659 15.2217 22.7553 15.933C22.3446 16.6443 21.6296 17 20.6103 17C19.5836 17 18.8649 16.6443 18.4543 15.933C18.0436 15.2217 17.8383 14.2243 17.8383 12.941ZM22.3813 12.941C22.3813 12.303 22.3373 11.764 22.2493 11.324C22.1686 10.8767 21.9963 10.5173 21.7323 10.246C21.4756 9.97467 21.1016 9.839 20.6103 9.839C20.1116 9.839 19.7303 9.97467 19.4663 10.246C19.2096 10.5173 19.0373 10.8767 18.9493 11.324C18.8686 11.764 18.8283 12.303 18.8283 12.941C18.8283 13.601 18.8686 14.1547 18.9493 14.602C19.0373 15.0493 19.2096 15.4087 19.4663 15.68C19.7303 15.9513 20.1116 16.087 20.6103 16.087C21.1016 16.087 21.4756 15.9513 21.7323 15.68C21.9963 15.4087 22.1686 15.0493 22.2493 14.602C22.3373 14.1547 22.3813 13.601 22.3813 12.941Z" fill="#87888C"/>
<path d="M274.706 12.124C275.722 11.308 276.518 10.64 277.094 10.12C277.67 9.592 278.154 9.044 278.546 8.476C278.946 7.9 279.146 7.336 279.146 6.784C279.146 6.264 279.018 5.856 278.762 5.56C278.514 5.256 278.11 5.104 277.55 5.104C277.006 5.104 276.582 5.276 276.278 5.62C275.982 5.956 275.822 6.408 275.798 6.976H274.742C274.774 6.08 275.046 5.388 275.558 4.9C276.07 4.412 276.73 4.168 277.538 4.168C278.362 4.168 279.014 4.396 279.494 4.852C279.982 5.308 280.226 5.936 280.226 6.736C280.226 7.4 280.026 8.048 279.626 8.68C279.234 9.304 278.786 9.856 278.282 10.336C277.778 10.808 277.134 11.36 276.35 11.992H280.478V12.904H274.706V12.124ZM282.268 13.072C282.06 13.072 281.884 13 281.74 12.856C281.596 12.712 281.524 12.536 281.524 12.328C281.524 12.12 281.596 11.944 281.74 11.8C281.884 11.656 282.06 11.584 282.268 11.584C282.468 11.584 282.636 11.656 282.772 11.8C282.916 11.944 282.988 12.12 282.988 12.328C282.988 12.536 282.916 12.712 282.772 12.856C282.636 13 282.468 13.072 282.268 13.072ZM282.268 7.936C282.06 7.936 281.884 7.864 281.74 7.72C281.596 7.576 281.524 7.4 281.524 7.192C281.524 6.984 281.596 6.808 281.74 6.664C281.884 6.52 282.06 6.448 282.268 6.448C282.468 6.448 282.636 6.52 282.772 6.664C282.916 6.808 282.988 6.984 282.988 7.192C282.988 7.4 282.916 7.576 282.772 7.72C282.636 7.864 282.468 7.936 282.268 7.936ZM284.163 12.124C285.179 11.308 285.975 10.64 286.551 10.12C287.127 9.592 287.611 9.044 288.003 8.476C288.403 7.9 288.603 7.336 288.603 6.784C288.603 6.264 288.475 5.856 288.219 5.56C287.971 5.256 287.567 5.104 287.007 5.104C286.463 5.104 286.039 5.276 285.735 5.62C285.439 5.956 285.279 6.408 285.255 6.976H284.199C284.231 6.08 284.503 5.388 285.015 4.9C285.527 4.412 286.187 4.168 286.995 4.168C287.819 4.168 288.471 4.396 288.951 4.852C289.439 5.308 289.683 5.936 289.683 6.736C289.683 7.4 289.483 8.048 289.083 8.68C288.691 9.304 288.243 9.856 287.739 10.336C287.235 10.808 286.591 11.36 285.807 11.992H289.935V12.904H284.163V12.124ZM291.197 8.572C291.197 7.196 291.421 6.124 291.869 5.356C292.317 4.58 293.101 4.192 294.221 4.192C295.333 4.192 296.113 4.58 296.561 5.356C297.009 6.124 297.233 7.196 297.233 8.572C297.233 9.972 297.009 11.06 296.561 11.836C296.113 12.612 295.333 13 294.221 13C293.101 13 292.317 12.612 291.869 11.836C291.421 11.06 291.197 9.972 291.197 8.572ZM296.153 8.572C296.153 7.876 296.105 7.288 296.009 6.808C295.921 6.32 295.733 5.928 295.445 5.632C295.165 5.336 294.757 5.188 294.221 5.188C293.677 5.188 293.261 5.336 292.973 5.632C292.693 5.928 292.505 6.32 292.409 6.808C292.321 7.288 292.277 7.876 292.277 8.572C292.277 9.292 292.321 9.896 292.409 10.384C292.505 10.872 292.693 11.264 292.973 11.56C293.261 11.856 293.677 12.004 294.221 12.004C294.757 12.004 295.165 11.856 295.445 11.56C295.733 11.264 295.921 10.872 296.009 10.384C296.105 9.896 296.153 9.292 296.153 8.572Z" fill="#87888C"/>
</svg>
