<svg width="87" height="62" viewBox="0 0 127 102" fill="none" xmlns="http://www.w3.org/2000/svg">
<path d="M5.25025 40.1023C2.06564 47.7262 0.285805 56 0.250542 64.2536H16.5907C16.6233 58.2107 17.8389 52.2312 20.1701 46.6504C22.5334 40.9926 25.9968 35.8562 30.3607 31.5369C34.7247 27.2175 39.9031 23.8003 45.598 21.482C51.2929 19.1637 57.3919 17.99 63.5439 18.0283C69.6959 18.0667 75.7796 19.3165 81.4449 21.7057C87.1101 24.0949 92.2452 27.5764 96.5545 31.9499C100.864 36.3234 104.262 41.5026 106.554 47.1895C108.815 52.7989 109.955 58.7931 109.912 64.8359L126.748 65.0461C126.819 56.7928 125.267 48.6046 122.179 40.9436C119.061 33.2053 114.436 26.1575 108.572 20.206C102.708 14.2545 95.72 9.51674 88.0104 6.26537C80.3007 3.01399 72.0216 1.31323 63.6494 1.26099C55.2932 1.20884 46.7867 3.52589 39.2515 6.23964C30.7556 10.5106 25.2408 13.7173 18.745 19.6888C12.8113 25.5628 8.46745 32.4005 5.25025 40.1023Z" stroke="#87888C" stroke-opacity="0.4" stroke-width="0.5"/>
<path d="M99 65C99 55.187 95.1018 45.7759 88.163 38.8371C81.2241 31.8982 71.813 28 62 28C52.187 28 42.7759 31.8982 35.8371 38.837C28.8982 45.7759 25 55.187 25 65L38.9783 65C38.9783 58.8943 41.4038 53.0386 45.7212 48.7212C50.0386 44.4038 55.8943 41.9783 62 41.9783C68.1057 41.9783 73.9614 44.4038 78.2788 48.7212C82.5962 53.0386 85.0217 58.8943 85.0217 65H99Z" fill="url(#paint0_linear_215_4)"/>
<path d="M19.0742 65.0038C19.0742 53.5343 23.8997 42.0346 32.0424 33.9245C40.1851 25.8143 51.2289 21.2581 62.7444 21.2581C74.2599 21.2581 85.3038 25.8143 93.4465 33.9245C101.395 41.8413 106.917 53.5343 106.917 65.0038" stroke="#313131" stroke-width="0.5"/>
<g filter="url(#filter0_f_215_4)">
<path d="M43.9959 48.085C41.211 50.6985 35.7455 58.941 36.1633 71.0033H104.909L103.905 57.0046C102.86 48.159 94.9371 35.8495 82.8226 31.5071L74.2893 43.5059C72.7228 42.5007 68.956 40.7268 64.3609 40.2445C60.0094 39.8424 49.8443 40.8476 43.9959 48.085Z" fill="#111111"/>
</g>
<path d="M21.082 65.0038C21.082 53.3201 25.9114 43.7631 33.6309 35.5067C41.3499 27.2508 52.0922 23.0079 63 23.0079C73.9079 23.0079 84.373 27.6422 92.092 35.898C99.8115 44.1545 104.407 53.3201 104.407 65.0038" stroke="#313131" stroke-width="0.5"/>
<path d="M-0.000152588 65.0038C-0.000152588 53.7293 3.014 42.1483 8.73254 32.4182C14.4511 22.6881 22.6677 14.6501 32.5381 9.13025C42.4085 3.61041 53.5765 0.807822 64.8944 1.01052C75.4995 0.501043 95.4995 7.5 104.5 16.5003L98.9995 23.0003L93.9995 29.0003C87.4995 24.0078 72.9995 17.5 63.9995 18C54.4995 18 48.3463 19.9891 41.1603 24.0078C33.9743 28.0265 27.2532 34.4222 23.0899 41.5061C18.9265 48.59 17.0664 56.7955 17.0664 65.0038H8.53311H-0.000152588Z" fill="#CFF80B"/>
<path d="M106.096 18.0001L104.5 16.5002L77 49.0002L106.096 18.0001Z" fill="white"/>
<path d="M126.995 65.0038H104.407" stroke="#404142" stroke-width="0.5"/>
<path d="M25.0977 65.0038H17.0664" stroke="#404142" stroke-width="0.5"/>
<path d="M58.2271 1.01001L59.7328 28.0071" stroke="#313131" stroke-opacity="0.72" stroke-width="0.5"/>
<path d="M13.5527 25.0077L33.631 41.5061" stroke="#313131" stroke-opacity="0.72" stroke-width="0.5"/>
<path d="M117.96 32.5076L100.894 44.0064" stroke="#313131" stroke-opacity="0.72" stroke-width="0.6"/>
<path d="M65.8125 62.75H54.5625C54.2531 62.75 54 63.0031 54 63.3125V64.4375C54 64.7469 54.2531 65 54.5625 65H65.8125C66.1219 65 66.375 64.7469 66.375 64.4375V63.3125C66.375 63.0031 66.1219 62.75 65.8125 62.75ZM71.3391 50.7723L68.4914 47.9246C68.2734 47.7066 67.9148 47.7066 67.6969 47.9246L67.2996 48.3219C67.0816 48.5398 67.0816 48.8984 67.2996 49.1164L68.625 50.4418V52.625C68.625 53.6129 69.3598 54.4285 70.3125 54.5656V60.2188C70.3125 60.6828 69.9328 61.0625 69.4688 61.0625C69.0047 61.0625 68.625 60.6828 68.625 60.2188V59.0938C68.625 57.3852 67.2398 56 65.5312 56H65.25V49.25C65.25 48.009 64.241 47 63 47H57.375C56.134 47 55.125 48.009 55.125 49.25V61.625H65.25V57.6875H65.5312C66.3082 57.6875 66.9375 58.3168 66.9375 59.0938V60.0711C66.9375 61.3965 67.8867 62.6023 69.2051 62.7395C70.7168 62.8906 72 61.7023 72 60.2188V52.3648C72 51.7672 71.7609 51.1941 71.3391 50.7723V50.7723ZM63 53.75H57.375V49.25H63V53.75Z" fill="white"/>
<defs>
<filter id="filter0_f_215_4" x="29.1406" y="24.5071" width="82.7681" height="53.4962" filterUnits="userSpaceOnUse" color-interpolation-filters="sRGB">
<feFlood flood-opacity="0" result="BackgroundImageFix"/>
<feBlend mode="normal" in="SourceGraphic" in2="BackgroundImageFix" result="shape"/>
<feGaussianBlur stdDeviation="3.5" result="effect1_foregroundBlur_215_4"/>
</filter>
<linearGradient id="paint0_linear_215_4" x1="25" y1="65" x2="85.5" y2="28" gradientUnits="userSpaceOnUse">
<stop stop-color="#CFF80B"/>
<stop offset="1" stop-color="#CFF80B" stop-opacity="0"/>
</linearGradient>
</defs>
</svg>
