<svg width="30" height="30" viewBox="0 0 30 30" fill="none" xmlns="http://www.w3.org/2000/svg">
<path d="M15 2.5C21.8895 2.5 27.5 8.10781 27.5 15.0072C27.5 21.8922 21.8895 27.5 15 27.5C8.11052 27.5 2.5 21.8922 2.5 15.0072C2.5 8.10781 8.11052 2.5 15 2.5ZM13.5763 10.0374C13.3108 10.0374 13.0574 10.0977 12.8161 10.2183C12.5145 10.3871 12.2732 10.6524 12.1404 10.966C12.056 11.1831 11.9233 11.8343 11.9233 11.8464C11.7905 12.5579 11.7181 13.7156 11.7181 14.994C11.7181 16.2132 11.7905 17.3215 11.8991 18.0451C11.9112 18.0572 12.0439 18.8652 12.1887 19.1425C12.4542 19.6491 12.973 19.9626 13.528 19.9626H13.5763C13.9382 19.9506 14.6984 19.637 14.6984 19.6249C15.9773 19.0943 18.499 17.4421 19.5125 16.3447L19.5849 16.2723C19.7177 16.1397 19.8866 15.9346 19.9228 15.8864C20.1158 15.6331 20.2124 15.3196 20.2124 15.0072C20.2124 14.6563 20.1038 14.3307 19.8986 14.0654C19.8504 14.0171 19.6694 13.8121 19.5005 13.6433C18.5111 12.582 15.9291 10.8454 14.5777 10.3148C14.3726 10.2315 13.8538 10.0494 13.5763 10.0374Z" fill="#A2A1A1"/>
</svg>
