<svg width="30" height="30" viewBox="0 0 30 30" fill="none" xmlns="http://www.w3.org/2000/svg">
<path d="M15.8963 2.50012C16.8416 2.50012 17.6975 3.02512 18.1701 3.80012C18.4001 4.17512 18.5534 4.63762 18.5151 5.12512C18.4895 5.50012 18.6045 5.87512 18.8089 6.22512C19.4604 7.28762 20.9039 7.68762 22.028 7.08762C23.2927 6.36262 24.8895 6.80012 25.6177 8.03762L26.4735 9.51262C27.2145 10.7501 26.8057 12.3376 25.5282 13.0501C24.4424 13.6876 24.0592 15.1001 24.7107 16.1751C24.9151 16.5126 25.145 16.8001 25.5027 16.9751C25.9498 17.2126 26.2947 17.5876 26.5374 17.9626C27.0101 18.7376 26.9718 19.6876 26.5119 20.5251L25.6177 22.0251C25.145 22.8251 24.2636 23.3251 23.3566 23.3251C22.9095 23.3251 22.4113 23.2001 22.0025 22.9501C21.6703 22.7376 21.2871 22.6626 20.8783 22.6626C19.6137 22.6626 18.5534 23.7001 18.5151 24.9376C18.5151 26.3751 17.3398 27.5001 15.8707 27.5001H14.1334C12.6516 27.5001 11.4763 26.3751 11.4763 24.9376C11.4508 23.7001 10.3905 22.6626 9.12582 22.6626C8.70426 22.6626 8.32103 22.7376 8.00167 22.9501C7.59288 23.2001 7.08191 23.3251 6.64757 23.3251C5.72781 23.3251 4.84637 22.8251 4.37372 22.0251L3.49228 20.5251C3.01963 19.7126 2.99408 18.7376 3.46673 17.9626C3.67112 17.5876 4.05436 17.2126 4.48869 16.9751C4.84637 16.8001 5.07631 16.5126 5.29348 16.1751C5.9322 15.1001 5.54897 13.6876 4.46314 13.0501C3.19847 12.3376 2.78968 10.7501 3.51783 9.51262L4.37372 8.03762C5.11464 6.80012 6.69867 6.36262 7.97612 7.08762C9.0875 7.68762 10.531 7.28762 11.1825 6.22512C11.3869 5.87512 11.5019 5.50012 11.4763 5.12512C11.4508 4.63762 11.5913 4.17512 11.834 3.80012C12.3067 3.02512 13.1626 2.52512 14.0951 2.50012H15.8963ZM15.0149 11.4751C13.0093 11.4751 11.3869 13.0501 11.3869 15.0126C11.3869 16.9751 13.0093 18.5376 15.0149 18.5376C17.0204 18.5376 18.6045 16.9751 18.6045 15.0126C18.6045 13.0501 17.0204 11.4751 15.0149 11.4751Z" fill="#A2A1A1"/>
</svg>
