<svg width="30" height="30" viewBox="0 0 30 30" fill="none" xmlns="http://www.w3.org/2000/svg">
<path d="M16.4998 5.25067C16.4998 2.35567 14.1448 0.000671387 11.2498 0.000671387C8.19876 0.000671387 6.37476 2.28817 6.37476 4.50067H9.37476C9.37476 3.87817 9.95676 3.00067 11.2498 3.00067C12.4903 3.00067 13.4998 4.01017 13.4998 5.25067C13.4998 6.49117 12.4903 7.50067 11.2498 7.50067H-0.000244141V10.5007H11.2498C14.1448 10.5007 16.4998 8.14567 16.4998 5.25067ZM20.2498 19.5007H8.99976V22.5007H20.2498C21.4903 22.5007 22.4998 23.5102 22.4998 24.7507C22.4998 25.9912 21.4903 27.0007 20.2498 27.0007C18.9568 27.0007 18.3748 26.1232 18.3748 25.5007H15.3748C15.3748 27.7132 17.1988 30.0007 20.2498 30.0007C23.1448 30.0007 25.4998 27.6457 25.4998 24.7507C25.4998 21.8557 23.1448 19.5007 20.2498 19.5007Z" fill="white"/>
<path d="M23.9998 4.50067C20.6908 4.50067 17.9998 7.19167 17.9998 10.5007H20.9998C20.9998 8.84617 22.3453 7.50067 23.9998 7.50067C25.6543 7.50067 26.9998 8.84617 26.9998 10.5007C26.9998 12.1552 25.6543 13.5007 23.9998 13.5007H-0.000244141V16.5007H23.9998C27.3088 16.5007 29.9998 13.8097 29.9998 10.5007C29.9998 7.19167 27.3088 4.50067 23.9998 4.50067ZM-0.000244141 19.5007H5.99976V22.5007H-0.000244141V19.5007Z" fill="white"/>
</svg>
